<?xml version="1.0" encoding="UTF-8"?>
<svg width="700pt" height="700pt" version="1.1" viewBox="0 0 700 700" xmlns="http://www.w3.org/2000/svg">
 <path d="m188.11 143.67h83.797l8.8828-29.301c2.25-7.4414 9.1094-12.234 16.508-12.242l105.42-0.074219c8.3945 0 15.398 5.9648 16.984 13.898l8.4062 27.719h83.801c17.039 0 32.555 6.9922 43.805 18.23 11.305 11.238 18.297 26.773 18.297 43.867v190.08c0 17.012-6.9922 32.527-18.27 43.832-11.336 11.297-26.84 18.27-43.832 18.27h-323.8c-17.09 0-32.629-6.9922-43.867-18.23-11.25-11.258-18.234-26.789-18.234-43.871v-190.08c0-17.09 6.9922-32.629 18.23-43.867 11.238-11.238 26.781-18.23 43.871-18.23zm161.9 40.273c-30.227 0-57.609 12.262-77.426 32.078-19.816 19.816-32.078 47.191-32.078 77.418s12.262 57.617 32.078 77.434c19.816 19.809 47.199 32.074 77.426 32.074 30.227 0 57.609-12.262 77.418-32.074 19.816-19.816 32.078-47.207 32.078-77.434s-12.262-57.602-32.078-77.418c-19.809-19.816-47.191-32.078-77.418-32.078zm52.934 56.566c13.531 13.531 21.914 32.258 21.914 52.934 0 20.676-8.3789 39.406-21.914 52.941-13.531 13.531-32.258 21.914-52.934 21.914-20.676 0-39.406-8.3789-52.941-21.914-13.527-13.531-21.906-32.266-21.906-52.941 0-20.676 8.3789-39.402 21.906-52.934 13.531-13.527 32.266-21.914 52.941-21.914 20.676 0 39.402 8.3867 52.934 21.914z"/>
</svg>
