<?xml version="1.0" encoding="UTF-8"?>
<svg width="700pt" height="700pt" version="1.1" viewBox="0 0 700 700" xmlns="http://www.w3.org/2000/svg">
 <path d="m326.67 323.27c-17.105-6.9219-29.168-23.688-29.168-43.273s12.062-36.352 29.168-43.273v-123.55c0-9.6719 7.7656-17.512 17.5-17.512 9.6641 0 17.5 7.7773 17.5 17.512v123.55c17.102 6.9219 29.164 23.688 29.164 43.273s-12.062 36.352-29.164 43.273v34.879c0 9.6719-7.7695 17.516-17.5 17.516-9.668 0-17.5-7.7812-17.5-17.516zm-22.965-295.78c-0.24219-1.3477-0.37109-2.7383-0.37109-4.1641 0-12.887 10.348-23.332 23.555-23.332h46.227c13.008 0 23.555 10.355 23.555 23.332 0 1.4219-0.12891 2.8164-0.36719 4.168 119.65 21.797 210.37 126.55 210.37 252.5 0 141.75-114.91 256.67-256.67 256.67s-256.67-114.91-256.67-256.67c0-125.95 90.715-230.71 210.37-252.5zm46.297 471.84c121.13 0 219.33-98.199 219.33-219.33s-98.199-219.33-219.33-219.33-219.33 98.199-219.33 219.33 98.199 219.33 219.33 219.33zm169.59-443.34c-7.3203-7.3203-7.3945-19.113-0.054688-26.457 7.2891-7.2891 19.133-7.2656 26.453 0.058594l55.988 55.984c7.3203 7.3203 7.3945 19.113 0.054688 26.453-7.2891 7.293-19.133 7.2695-26.453-0.054688z"/>
</svg>
