<?xml version="1.0" encoding="UTF-8"?>
<svg width="700pt" height="700pt" version="1.1" viewBox="0 0 700 700" xmlns="http://www.w3.org/2000/svg">
 <path d="m493.62 472.41c31.887-58.461 48.879-124.18 48.879-192.41 0-68.242-16.996-133.95-48.871-192.4l-131.62 71.523c20.734 24.301 34.66 69.336 34.66 120.88 0 51.551-13.93 96.59-34.676 120.89zm30.762-401.52c34.641 63.535 53.117 134.98 53.117 209.11 0 74.121-18.473 145.57-53.125 209.12l20.691 11.242c9.0312 5.2148 12.172 16.684 6.9297 25.758-5.2031 9.0117-16.766 12.074-25.773 6.875l-210.02-114.55c-5.4766-1.6406-10.746-4.5547-15.734-8.582l-183.8-100.25c-9.8164-6.2031-16.332-17.148-16.332-29.613s6.5156-23.41 16.332-29.613l183.76-100.22c5.0078-4.0508 10.305-6.9766 15.812-8.6211l209.98-114.52c9.0312-5.2148 20.535-2.1992 25.773 6.875 5.2031 9.0117 2.0742 20.559-6.9297 25.758zm-258.77 277.62c-5.6953-20.254-8.9414-43.625-8.9414-68.516 0-24.879 3.2422-48.242 8.9336-68.492l-117.14 63.656v9.6953zm56.531 30.719 5.4414 2.957c0.5-0.32422 1.2227-0.85547 2.2188-1.6953 4.1367-3.5 8.7148-9.6836 12.973-18.195 10.305-20.613 16.559-50.195 16.559-82.301s-6.2539-61.688-16.559-82.301c-4.2578-8.5117-8.8359-14.695-12.973-18.195-0.98438-0.83203-1.7031-1.3594-2.1992-1.6836l-5.5078 2.9922c-3.7422 3.6406-7.7656 9.3516-11.531 16.887-10.305 20.613-16.562 50.195-16.562 82.301s6.2578 61.688 16.562 82.301c3.7852 7.5664 7.8203 13.297 11.578 16.934z"/>
</svg>
