<?xml version="1.0" encoding="UTF-8"?>
<svg width="700pt" height="700pt" version="1.1" viewBox="0 0 700 700" xmlns="http://www.w3.org/2000/svg">
 <path d="m350 0c-74.262 0-145.48 29.5-197.99 82.012-52.512 52.508-82.012 123.73-82.012 197.99s29.5 145.48 82.012 197.99c52.508 52.512 123.73 82.012 197.99 82.012s145.48-29.5 197.99-82.012c52.512-52.508 82.012-123.73 82.012-197.99 0-49.148-12.938-97.434-37.512-140-24.578-42.566-59.922-77.91-102.49-102.49-42.566-24.574-90.852-37.512-140-37.512zm30.801 420c0 11.004-5.8711 21.172-15.402 26.672-9.5273 5.5039-21.27 5.5039-30.797 0-9.5312-5.5-15.402-15.668-15.402-26.672v-170.24c0-11.004 5.8711-21.172 15.402-26.676 9.5273-5.5 21.27-5.5 30.797 0 9.5312 5.5039 15.402 15.672 15.402 26.676zm-30.801-252c-10.098 0-19.785-4.0117-26.926-11.152s-11.152-16.828-11.152-26.926c0-10.102 4.0117-19.789 11.152-26.93 7.1406-7.1406 16.828-11.152 26.926-11.152s19.785 4.0117 26.926 11.152c7.1406 7.1406 11.152 16.828 11.152 26.93 0 10.098-4.0117 19.785-11.152 26.926s-16.828 11.152-26.926 11.152z"/>
</svg>
