<svg width="241" height="163" viewBox="0 0 241 163" fill="none" xmlns="http://www.w3.org/2000/svg">
<mask id="mask0" mask-type="alpha" maskUnits="userSpaceOnUse" x="-30" y="-8" width="294" height="176">
<path d="M264 -8H-30V168H264V-8Z" fill="white"/>
</mask>
<g mask="url(#mask0)">
<path d="M144.771 56.1682V56.837L133.552 63.1671L122.049 56.6801L122.024 56.7226V56.1711H120.654V56.7343L109.25 63.1701L97.7842 56.7006V56.1711H96.42V84.9545H97.7886V84.9339L109.255 78.4645L120.659 84.9002V84.9545H122.029V84.9119L122.054 84.9545L133.557 78.4645L144.776 84.7946V84.9545H146.146V56.1682H144.771ZM144.771 58.2993V69.4987L134.849 63.899L144.771 58.2993ZM132.256 63.899L122.024 69.6718V58.1262L132.256 63.899ZM120.654 58.1951V69.6029L110.547 63.899L120.654 58.1951ZM107.954 63.899L97.7827 69.6381V58.1599L107.954 63.899ZM97.7827 83.4717V71.9935L107.954 77.7326L97.7827 83.4717ZM98.2884 70.8158L109.25 64.6309L120.212 70.8158L109.25 77.0007L98.2884 70.8158ZM110.547 77.7326L120.654 72.0287V83.4365L110.547 77.7326ZM122.024 83.5054V71.9598L132.256 77.7326L122.024 83.5054ZM122.592 70.8158L133.552 64.6309L144.514 70.8158L133.552 77.0007L122.592 70.8158ZM134.849 77.7326L144.771 72.1329V83.3323L134.849 77.7326Z" fill="#B2B2B2"/>
<path d="M169.253 26.0972H73.3013V63.0572H169.253V26.0972Z" fill="#0078D7"/>
<path d="M167 27.9243H74.9998V60.9243H167V27.9243Z" fill="white"/>
<path d="M53.0344 157.119C56.0562 157.119 58.5058 154.675 58.5058 151.66C58.5058 148.645 56.0562 146.201 53.0344 146.201C50.0127 146.201 47.5631 148.645 47.5631 151.66C47.5631 154.675 50.0127 157.119 53.0344 157.119Z" fill="#1B5E20"/>
<path d="M76.1763 148.398C77.5858 142.33 73.7992 136.266 67.7186 134.854C61.638 133.441 55.5661 137.215 54.1565 143.284C52.747 149.352 56.5336 155.416 62.6142 156.828C68.6948 158.241 74.7667 154.467 76.1763 148.398Z" fill="#2E7D32"/>
<path d="M172.373 89.7432H69.6145V154.096H172.373V89.7432Z" fill="#0078D7"/>
<path d="M172.663 150.205H162.864V154.098H173.791V151.329C173.791 151.03 173.672 150.744 173.46 150.534C173.249 150.323 172.962 150.205 172.663 150.205Z" fill="#EDEDED"/>
<path d="M162.864 107.554H133.993V154.098H162.864V107.554Z" fill="white"/>
<path d="M161.15 109.264H135.709V152.386H161.15V109.264Z" fill="#005291"/>
<path d="M161.148 119.936V122.58L147.802 109.264H150.454L161.148 119.936Z" fill="#0E669B"/>
<path d="M161.149 123.987V129.276L141.092 109.264H146.394L161.149 123.987Z" fill="#0E669B"/>
<g style="mix-blend-mode:multiply" opacity="0.2">
<path d="M161.15 109.264H135.709V110.264H161.15V109.264Z" fill="#212121"/>
</g>
<g style="mix-blend-mode:multiply" opacity="0.1">
<path d="M133.993 143.727V154.098H144.388L133.993 143.727Z" fill="#212121"/>
</g>
<path d="M139.885 127.805C139.885 128.409 139.394 128.899 138.788 128.899C138.183 128.899 137.692 128.409 137.692 127.805C137.692 127.2 138.183 126.71 138.788 126.71C139.394 126.71 139.885 127.2 139.885 127.805Z" fill="#E0E0E0"/>
<path d="M139.885 135.642C139.885 136.247 139.394 136.737 138.788 136.737C138.183 136.737 137.692 136.247 137.692 135.642C137.692 135.038 138.183 134.548 138.788 134.548C139.394 134.548 139.885 135.038 139.885 135.642Z" fill="#E0E0E0"/>
<path d="M138.788 126.949C138.622 126.949 138.462 127.015 138.344 127.133C138.227 127.25 138.161 127.41 138.161 127.576V135.871C138.161 136.217 138.442 136.497 138.788 136.497C139.135 136.497 139.416 136.217 139.416 135.871V127.576C139.416 127.23 139.135 126.949 138.788 126.949Z" fill="#F5F5F5"/>
<path d="M72.0988 150.205H133.986V154.098H68.196C68.196 153.065 68.6072 152.075 69.3392 151.345C70.0712 150.615 71.0639 150.205 72.0988 150.205Z" fill="#EDEDED"/>
<path d="M172.501 85.6716H69.4852V87.5592H172.501V85.6716Z" fill="#BDBDBD"/>
<path d="M172.501 81.8979H69.4852V83.7855H172.501V81.8979Z" fill="#BDBDBD"/>
<path d="M171.237 83.7842H70.7494V85.6718H171.237V83.7842Z" fill="#40CDF5"/>
<path d="M171.237 83.7842H70.7494V84.7842H171.237V83.7842Z" fill="#00B0E3"/>
<path d="M159.58 103.731H153.816V105.967H159.58V103.731Z" fill="#006FC8"/>
<path d="M166.858 103.731H161.094V105.967H166.858V103.731Z" fill="#006FC8"/>
<path d="M163.243 100.007H157.479V102.243H163.243V100.007Z" fill="#006FC8"/>
<path d="M169.741 135.113H163.977V137.35H169.741V135.113Z" fill="#006FC8"/>
<path d="M173.404 131.389H167.64V133.626H173.404V131.389Z" fill="#006FC8"/>
<path d="M84.8923 103.731H79.1284V105.967H84.8923V103.731Z" fill="#006FC8"/>
<path d="M92.1702 103.731H86.4064V105.967H92.1702V103.731Z" fill="#006FC8"/>
<path d="M88.5555 100.007H82.7916V102.243H88.5555V100.007Z" fill="#006FC8"/>
<path d="M95.8335 100.007H90.0696V102.243H95.8335V100.007Z" fill="#006FC8"/>
<path d="M96.6155 148.438H102.379V146.201H96.6155V148.438Z" fill="#006FC8"/>
<path d="M118.113 144.714H123.877V142.477H118.113V144.714Z" fill="#006FC8"/>
<path d="M89.3375 148.438H95.1014V146.201H89.3375V148.438Z" fill="#006FC8"/>
<path d="M92.9523 144.714H98.7161V142.477H92.9523V144.714Z" fill="#006FC8"/>
<path d="M85.6743 144.714H91.4382V142.477H85.6743V144.714Z" fill="#006FC8"/>
<path d="M72.8162 123.098H68.6502V125.335H72.8162V123.098Z" fill="#006FC8"/>
<path d="M75.4637 119.374H71.2977V121.611H75.4637V119.374Z" fill="#006FC8"/>
<path d="M162.864 114.128C162.627 114.128 162.434 114.319 162.433 114.556V117.831C162.447 118.058 162.635 118.236 162.863 118.236C163.091 118.236 163.28 118.058 163.293 117.831V114.556C163.293 114.32 163.101 114.128 162.864 114.128Z" fill="#F5F5F5"/>
<path d="M162.864 143.391C162.626 143.391 162.433 143.583 162.433 143.821V147.094C162.424 147.253 162.504 147.405 162.641 147.487C162.778 147.57 162.949 147.57 163.086 147.487C163.223 147.405 163.303 147.253 163.293 147.094V143.821C163.294 143.707 163.249 143.597 163.168 143.517C163.088 143.436 162.978 143.391 162.864 143.391Z" fill="#F5F5F5"/>
<path d="M119.695 103.731H116.812V105.967H119.695V103.731Z" fill="#006FC8"/>
<path d="M122.984 100.007H120.102V102.243H122.984V100.007Z" fill="#006FC8"/>
<path d="M118.152 100.007H112.389V102.243H118.152V100.007Z" fill="#006FC8"/>
<path d="M76.4692 142.322H73.5865V144.558H76.4692V142.322Z" fill="#006FC8"/>
<path d="M74.4494 138.598H68.6855V140.835H74.4494V138.598Z" fill="#006FC8"/>
<path d="M169.057 120.399H164.897V122.636H169.057V120.399Z" fill="#006FC8"/>
<path d="M129.527 113.393H126.617V115.63H129.527V113.393Z" fill="#006FC8"/>
<path d="M130.983 116.617H128.072V118.854H130.983V116.617Z" fill="#006FC8"/>
<path d="M78.927 95.6685C78.927 98.9806 81.6181 101.666 84.9378 101.666C88.2575 101.666 90.9487 98.9806 90.9487 95.6685V91.9285H78.927V95.6685Z" fill="#E0E0E0"/>
<path d="M102.963 95.6685C102.963 98.9806 105.654 101.666 108.974 101.666C112.293 101.665 114.983 98.9801 114.983 95.6685V91.9285H102.963V95.6685Z" fill="#E0E0E0"/>
<path d="M127.005 95.6685C127.005 98.9801 129.695 101.665 133.014 101.666C136.334 101.666 139.025 98.9806 139.025 95.6685V91.9285H127.005V95.6685Z" fill="#E0E0E0"/>
<path d="M151.045 91.9285V95.6685C151.045 98.9806 153.736 101.666 157.056 101.666C160.375 101.665 163.065 98.9801 163.065 95.6685V91.9285H151.045Z" fill="#E0E0E0"/>
<path d="M78.9211 91.9285H90.9428L92.3775 87.5593H80.9321L78.9211 91.9285Z" fill="#EEEEEE"/>
<path d="M102.963 91.9285H114.983L115.271 87.5593H103.824L102.963 91.9285Z" fill="#EEEEEE"/>
<path d="M126.717 87.5593L127.005 91.9285H139.025L138.164 87.5593H126.717Z" fill="#EEEEEE"/>
<path d="M161.056 87.5593H149.609L151.045 91.9285H163.065L161.056 87.5593Z" fill="#EEEEEE"/>
<path d="M66.9009 95.6685C66.9009 98.9806 69.5921 101.666 72.9118 101.666C74.5067 101.667 76.0367 101.036 77.1649 99.9107C78.2931 98.7859 78.927 97.2598 78.927 95.6685V91.9285H66.9009V95.6685Z" fill="#00B0E3"/>
<path d="M90.9428 95.6685C90.9428 98.9801 93.633 101.665 96.9521 101.666C100.272 101.666 102.963 98.9806 102.963 95.6685V91.9285H90.9428V95.6685Z" fill="#00B0E3"/>
<path d="M114.983 95.6685C114.983 98.9806 117.674 101.666 120.994 101.666C124.314 101.666 127.005 98.9806 127.005 95.6685V91.9285H114.983V95.6685Z" fill="#00B0E3"/>
<path d="M139.025 95.6685C139.025 98.9801 141.715 101.665 145.034 101.666C148.354 101.666 151.045 98.9806 151.045 95.6685V91.9285H139.025V95.6685Z" fill="#00B0E3"/>
<path d="M163.065 91.9285V95.6685C163.065 98.9806 165.757 101.666 169.076 101.666C172.396 101.666 175.087 98.9806 175.087 95.6685V91.9285H163.065Z" fill="#00B0E3"/>
<path d="M66.9009 91.9285H78.9211L80.9321 87.5593H69.4852L66.9009 91.9285Z" fill="#40CDF5"/>
<path d="M90.9428 91.9285H102.963L103.824 87.5593H92.3775L90.9428 91.9285Z" fill="#40CDF5"/>
<path d="M115.271 87.5593L114.983 91.9285H127.005L126.717 87.5593H115.271Z" fill="#40CDF5"/>
<path d="M138.164 87.5593L139.025 91.9285H151.045L149.609 87.5593H138.164Z" fill="#40CDF5"/>
<path d="M172.503 87.5593H161.056L163.065 91.9285H175.087L172.503 87.5593Z" fill="#40CDF5"/>
<path d="M73.7893 107.554H70.7332V109.791H73.7893V107.554Z" fill="#006FC8"/>
<path d="M126.617 108.031H77.7098V137.631H126.617V108.031Z" fill="white"/>
<path d="M124.903 109.743H79.4253V135.921H124.903V109.743Z" fill="#005291"/>
<path d="M124.901 117.468V121.519L113.099 109.743H117.159L124.901 117.468Z" fill="#0E669B"/>
<path d="M124.901 122.645V124.669L109.941 109.743H111.973L124.901 122.645Z" fill="#0E669B"/>
<g style="mix-blend-mode:multiply" opacity="0.2">
<path d="M124.903 109.743H79.4253V110.743H124.903V109.743Z" fill="#212121"/>
</g>
<path d="M129.163 137.633H75.1638V143.203H129.163V137.633Z" fill="#FAFBFB"/>
<path d="M125.82 134.369H78.5125C77.2598 134.369 76.2442 135.383 76.2442 136.632V137.64H128.084V136.64C128.086 136.039 127.848 135.462 127.424 135.036C126.999 134.611 126.422 134.371 125.82 134.369Z" fill="#2E7D32"/>
<path d="M129.161 137.633H75.1638V138.827H129.161V137.633Z" fill="#EEEEEE"/>
<path d="M128.078 136.518H76.2501C76.2501 136.556 76.2501 136.594 76.2501 136.632V137.64H128.084V136.64C128.084 136.594 128.079 136.556 128.078 136.518Z" fill="#4C9D4C"/>
<g style="mix-blend-mode:multiply" opacity="0.15">
<path d="M133.993 142.451V154.098H86.0844L75.1638 143.203H129.163V137.631L133.993 142.451Z" fill="#212121"/>
</g>
<g clip-path="url(#clip0)">
<path d="M130.909 51.1742C131.013 51.0697 131.223 51.2788 131.118 51.3833C130.7 52.6379 127.145 56.9242 121.291 56.9242C121.082 56.9242 115.645 55.2515 115.959 49.8151C116.273 44.2742 120.245 42.7061 120.245 42.7061C120.245 42.7061 119.095 43.1242 118.677 44.4833C118.259 45.8424 118.363 48.0379 121.604 50.4424C124.845 53.0561 129.863 51.4879 130.909 51.1742Z" fill="url(#paint0_radial)"/>
<path d="M124.427 45.5289C124.427 45.5289 124.323 42.7062 121.5 42.6017C118.886 42.4971 116.168 46.1562 116.168 49.5017C116.168 56.4017 122.754 56.9244 123.591 56.8198C123.591 56.8198 122.754 57.0289 121.395 57.0289C119.618 56.9244 110.209 55.9835 110 45.1108C110.313 38.5244 118.886 38.5244 121.709 40.3017C124.427 41.9744 124.427 45.5289 124.427 45.5289Z" fill="url(#paint1_radial)"/>
<path d="M127.145 49.188C127.459 49.188 133 49.188 133 43.5425C133 37.897 127.041 33.9243 121.814 33.9243C116.586 33.9243 113.764 37.0607 113.45 37.2698C109.895 40.5107 110 45.1107 110 45.1107C110 45.1107 110.627 39.3607 117.632 39.4652C124.114 39.8834 124.323 44.797 124.323 45.2152C124.323 46.9925 123.277 47.2016 123.277 47.7243C123.382 48.3516 124.636 49.188 127.145 49.188Z" fill="url(#paint2_radial)"/>
</g>
<path d="M200.8 153.333H33.2C30.77 153.333 28.8 155.303 28.8 157.733C28.8 160.164 30.77 162.133 33.2 162.133H200.8C203.23 162.133 205.2 160.164 205.2 157.733C205.2 155.303 203.23 153.333 200.8 153.333Z" fill="#C4C4C4"/>
<path d="M55.4748 99.1738C55.4748 100.997 54.3741 102.64 52.6861 103.338C50.9981 104.035 49.0552 103.65 47.7632 102.361C46.4713 101.072 46.0848 99.1332 46.784 97.449C47.4832 95.7649 49.1304 94.6667 50.9574 94.6667C53.4523 94.6667 55.4748 96.6846 55.4748 99.1738Z" fill="#48C4AE"/>
<path d="M65.0859 63.1331C65.0859 70.5481 60.6091 77.233 53.7429 80.0707C46.8767 82.9083 38.9734 81.3398 33.7183 76.0965C28.4632 70.8533 26.8911 62.968 29.7352 56.1174C32.5792 49.2668 39.2793 44.8 46.7112 44.8C51.5845 44.8 56.2582 46.7316 59.7041 50.1697C63.15 53.6078 65.0859 58.2709 65.0859 63.1331Z" fill="#0D7364"/>
<path d="M46.3342 22.0139C46.3342 30.49 39.4474 37.3611 30.9521 37.3611C22.4568 37.3611 15.57 30.49 15.57 22.0139C15.57 13.5379 22.4568 6.66675 30.9521 6.66675C39.4474 6.66675 46.3342 13.5379 46.3342 22.0139Z" fill="#EDAC28"/>
<path d="M96.25 19.7802C96.2506 27.4577 91.6158 34.3795 84.5068 37.3179C77.3978 40.2564 69.2146 38.6328 63.7733 33.2042C58.3319 27.7756 56.704 19.6112 59.6486 12.518C62.5932 5.42493 69.5304 0.800049 77.2253 0.800049C87.7316 0.800049 96.2486 9.29774 96.2486 19.7802" fill="#00B0E3"/>
<path d="M209.61 72.6668C209.61 63.7566 202.37 56.5334 193.44 56.5334C184.51 56.5334 177.27 63.7566 177.27 72.6668C177.27 81.577 184.51 88.8001 193.44 88.8001C202.37 88.8001 209.61 81.577 209.61 72.6668Z" fill="#EDAC28"/>
<path d="M209.623 33.2707C209.623 39.7508 204.358 45.004 197.863 45.004C191.368 45.004 186.103 39.7508 186.103 33.2707C186.103 26.7905 191.368 21.5374 197.863 21.5374C204.358 21.5383 209.622 26.791 209.623 33.2707Z" fill="#ED8422"/>
<path d="M161.262 13.3474C161.262 17.037 158.264 20.0281 154.566 20.0281C150.868 20.0281 147.87 17.037 147.87 13.3474C147.87 9.65778 150.868 6.66675 154.566 6.66675C156.342 6.66636 158.045 7.37009 159.301 8.62304C160.557 9.87599 161.262 11.5755 161.262 13.3474Z" fill="#0D7364"/>
<path d="M239.031 52.877C239.031 57.3378 235.406 60.9539 230.935 60.9539C226.464 60.9539 222.84 57.3378 222.84 52.877C222.84 48.4162 226.464 44.8 230.935 44.8C235.406 44.8 239.031 48.4162 239.031 52.877Z" fill="#DF6C47"/>
<path d="M234.324 8.72887C234.324 11.4878 232.082 13.7243 229.317 13.7243C226.552 13.7243 224.31 11.4878 224.31 8.72887C224.31 5.96995 226.552 3.7334 229.317 3.7334C232.082 3.7334 234.324 5.96995 234.324 8.72887Z" fill="#48C4AE"/>
<path d="M240.918 100.752C240.918 106.543 236.213 111.237 230.409 111.237C224.605 111.237 219.9 106.543 219.9 100.752C219.9 94.961 224.605 90.2666 230.409 90.2666C236.213 90.2666 240.918 94.961 240.918 100.752Z" fill="#ED8422"/>
<path d="M16.9841 107.105C16.9841 111.545 13.3769 115.144 8.92706 115.144C4.47727 115.144 0.869995 111.545 0.869995 107.105C0.869995 102.666 4.47727 99.0667 8.92706 99.0667C13.3769 99.0667 16.9841 102.666 16.9841 107.105Z" fill="#DF6C47"/>
<path d="M15.717 47.8067C15.717 51.0873 13.0515 53.7467 9.7635 53.7467C6.47547 53.7467 3.81 51.0873 3.81 47.8067C3.81 44.5261 6.47547 41.8667 9.7635 41.8667C13.0515 41.8667 15.717 44.5261 15.717 47.8067Z" fill="#0D7364"/>
<path d="M84.909 15.5958C84.9103 12.1086 82.5525 9.05984 79.1713 8.17667C75.7901 7.29349 72.2375 8.7984 70.5259 11.8389C68.8144 14.8794 69.3752 18.6893 71.8907 21.1105C73.2509 22.4471 74.009 24.2774 73.9913 26.1822V26.3201H80.4593V26.1822C80.4764 24.2379 81.27 22.3808 82.6643 21.0225C84.1105 19.5855 84.9222 17.6322 84.9193 15.5958" fill="white"/>
<path d="M76.2183 17.2223L76.1963 16.6224L76.1493 15.2423C76.1493 14.4323 75.4911 13.7756 74.6793 13.7756C73.8674 13.7756 73.2093 14.4323 73.2093 15.2423V15.3024C73.2085 15.8961 73.5666 16.4317 74.1163 16.6591L74.1545 16.6752C74.6287 16.8722 75.121 17.0225 75.6245 17.124L76.0052 28.2194L76.5932 28.2003L76.2169 17.2223H76.2183ZM74.3794 16.1282L74.3397 16.112C74.0126 15.9752 73.7995 15.6563 73.7987 15.3024V15.2423C73.77 14.91 73.932 14.5899 74.2172 14.4159C74.5024 14.2418 74.8618 14.2436 75.1452 14.4205C75.4287 14.5974 75.5875 14.9191 75.5554 15.2511L75.5995 16.5139C75.1823 16.4212 74.774 16.2921 74.3794 16.1282Z" fill="#D2D2D2"/>
<path d="M79.7993 13.7727H79.7743C78.9658 13.7727 78.3091 14.424 78.3043 15.2306L78.2558 16.6268C77.716 16.6997 77.1699 16.7139 76.627 16.6694L76.6564 17.2648C77.1827 17.3028 77.7114 17.29 78.2352 17.2267L77.8589 28.2003L78.4469 28.2194L78.8291 17.1314L78.8496 16.5212L78.8937 15.2408C78.8937 14.7548 79.2886 14.3608 79.7757 14.3608H79.8007C80.2878 14.3608 80.6827 14.7548 80.6827 15.2408V15.3068C80.6821 15.6591 80.471 15.977 80.1462 16.115C79.8893 16.2217 79.6268 16.3143 79.3597 16.3922L79.3333 17.014C79.6891 16.9209 80.0379 16.8028 80.377 16.6606C80.9228 16.4313 81.2774 15.8977 81.2766 15.3068V15.2408C81.2766 14.4308 80.6185 13.7742 79.8066 13.7742" fill="#D2D2D2"/>
<path d="M73.9913 26.1821V29.8341C73.9913 30.3639 74.4217 30.7933 74.9527 30.7933H76.2757V31.6337H78.2543V30.7933H79.5773C80.1085 30.7933 80.5393 30.3641 80.5401 29.8341V26.1821H73.9913Z" fill="#09538F"/>
<path d="M79.1436 27.2161H73.9972V28.2161H79.1436V27.2161Z" fill="#1070C4"/>
<path d="M79.1436 28.8457H73.9972V29.8457H79.1436V28.8457Z" fill="#1070C4"/>
<path d="M203.743 37.6706H191.983V28.8706L197.863 32.6113L203.743 28.8706V37.6706Z" fill="#D2D2D2"/>
<path d="M191.983 37.6706L196.67 32.3797C197.35 31.612 198.377 31.612 199.056 32.3797L203.743 37.6706H191.983Z" fill="#D2D2D2"/>
<path d="M202.897 30.4757L199.085 32.9103C198.331 33.3907 197.396 33.3907 196.642 32.9103L192.829 30.4757C192.305 30.1403 191.983 29.53 191.983 28.8706H203.743C203.743 29.53 203.422 30.1403 202.897 30.4757Z" fill="white"/>
<path d="M235.203 97.1204H225.614V105.048H235.203V97.1204Z" fill="#F3F3F3"/>
<path d="M227.659 96.3887H226.659V97.7849H227.659V96.3887Z" fill="#D2D2D2"/>
<path d="M229.029 96.3887H228.029V97.7849H229.029V96.3887Z" fill="#D2D2D2"/>
<path d="M230.399 96.3887H229.399V97.7849H230.399V96.3887Z" fill="#D2D2D2"/>
<path d="M231.769 96.3887H230.769V97.7849H231.769V96.3887Z" fill="#D2D2D2"/>
<path d="M233.139 96.3887H232.139V97.7849H233.139V96.3887Z" fill="#D2D2D2"/>
<path d="M234.508 96.3887H233.508V97.7849H234.508V96.3887Z" fill="#D2D2D2"/>
<path d="M228.354 99.5112H226.984V100.878H228.354V99.5112Z" fill="#D2D2D2"/>
<path d="M231.094 99.5112H229.724V100.878H231.094V99.5112Z" fill="#D2D2D2"/>
<path d="M233.834 99.5112H232.464V100.878H233.834V99.5112Z" fill="#D2D2D2"/>
<path d="M228.354 102.041H226.984V103.408H228.354V102.041Z" fill="#D2D2D2"/>
<path d="M231.094 102.041H229.724V103.408H231.094V102.041Z" fill="#D2D2D2"/>
<path d="M233.834 102.041H232.464V103.408H233.834V102.041Z" fill="#D2D2D2"/>
<path fill-rule="evenodd" clip-rule="evenodd" d="M37.1393 30.0028H24.7648V17.6593L28.6559 14.0264H37.1393V30.0028Z" fill="white"/>
<path fill-rule="evenodd" clip-rule="evenodd" d="M28.6559 17.6593H24.7648L28.6559 14.0249V17.6593Z" fill="#09538F"/>
<path d="M35.3694 19.179H26.5347V20.179H35.3694V19.179Z" fill="#D2D2D2"/>
<path d="M35.3694 20.7703H26.5347V21.7703H35.3694V20.7703Z" fill="#D2D2D2"/>
<path d="M35.3694 22.3601H26.5347V23.3601H35.3694V22.3601Z" fill="#D2D2D2"/>
<path d="M35.3694 23.95H26.5347V24.95H35.3694V23.95Z" fill="#D2D2D2"/>
<path d="M35.3694 25.4724H26.5347V26.4724H35.3694V25.4724Z" fill="#D2D2D2"/>
<path d="M202.464 80H184.416C183.717 80 183.15 79.4546 183.15 78.7817V68.0184C183.15 67.3455 183.717 66.8 184.416 66.8H202.464C203.163 66.8 203.73 67.3455 203.73 68.0184V78.7817C203.73 79.4546 203.163 80 202.464 80Z" fill="#09538F"/>
<path d="M188.422 77.0667L187.56 76.1756L190.245 73.4011L187.56 70.6246L188.422 69.7334L191.97 73.4011L188.422 77.0667Z" fill="white"/>
<path d="M199.32 75.6001H193.44V77.0668H199.32V75.6001Z" fill="white"/>
<path d="M202.625 65.3335H184.252C183.644 65.3335 183.15 65.8853 183.15 66.566V68.2668H203.73V66.566C203.73 65.8853 203.236 65.3335 202.628 65.3335" fill="white"/>
<path d="M57.7359 62.3981C57.7366 66.5507 55.23 70.2948 51.385 71.8844C47.54 73.474 43.1139 72.596 40.1707 69.6599C37.2274 66.7239 36.3468 62.3079 37.9394 58.4714C39.5319 54.6348 43.2841 52.1333 47.4461 52.1333C53.1284 52.1333 57.735 56.7288 57.7359 62.3981Z" fill="#DF6C47"/>
<path d="M47.4459 52.1333V62.4H57.7359C57.7363 56.8163 53.2634 52.2569 47.6693 52.1384L47.4459 52.1333Z" fill="#EDAC28"/>
<path d="M47.4459 62.4001L53.767 71.2001C54.7742 70.3718 55.6229 69.3394 56.2659 68.1605L47.4459 62.4001Z" fill="white"/>
<path d="M56.2416 68.2668L47.4459 62.4001H57.7335C57.7764 64.4743 57.2608 66.5159 56.2517 68.2668" fill="#48C4AE"/>
</g>
<defs>
<radialGradient id="paint0_radial" cx="0" cy="0" r="1" gradientUnits="userSpaceOnUse" gradientTransform="translate(123.599 49.8212) scale(7.59105 7.81346)">
<stop offset="0.5132" stop-color="#2B6AB0"/>
<stop offset="0.6746" stop-color="#2867AD"/>
<stop offset="0.8129" stop-color="#205FA2"/>
<stop offset="0.9424" stop-color="#135190"/>
<stop offset="1" stop-color="#0B4986"/>
</radialGradient>
<radialGradient id="paint1_radial" cx="0" cy="0" r="1" gradientUnits="userSpaceOnUse" gradientTransform="translate(117.215 48.1091) scale(10.0686 9.29932)">
<stop offset="0.0386256" stop-color="#037CD5"/>
<stop offset="0.6016" stop-color="#0C88DA"/>
<stop offset="0.9279" stop-color="#0870B6"/>
</radialGradient>
<radialGradient id="paint2_radial" cx="0" cy="0" r="1" gradientUnits="userSpaceOnUse" gradientTransform="translate(116.507 40.429) scale(19.2516 16.231)">
<stop offset="0.4136" stop-color="#2FC2E0"/>
<stop offset="0.571" stop-color="#32C4A4"/>
<stop offset="0.7395" stop-color="#35C669"/>
<stop offset="0.8203" stop-color="#36C752"/>
</radialGradient>
<clipPath id="clip0">
<rect width="23" height="23" fill="white" transform="translate(110 33.9243)"/>
</clipPath>
</defs>
</svg>
