<svg xmlns="http://www.w3.org/2000/svg" xml:space="preserve" style="fill-rule:evenodd;clip-rule:evenodd;stroke-linejoin:round;stroke-miterlimit:2" viewBox="0 0 467 196"><path d="M534.396 486.428c0 8.95-6.132 15.789-14.158 15.789H325.872c-8.062 0-14.607-7.267-14.607-16.218V351.017c0-8.951 6.545-16.218 14.607-16.218h274.833c8.062 0 14.607 7.267 14.607 16.218v81.571c0 8.951-6.132 15.789-14.158 15.789h-52.6c-8.026 0-14.158 6.839-14.158 15.79v22.261Z" style="fill:#004183" transform="matrix(.95985 -.09066 .00597 .86394 -141.347 -218.397)"/><path d="M534.396 486.428c0 8.95-6.132 15.789-14.158 15.789H325.872c-8.062 0-14.607-7.267-14.607-16.218V351.017c0-8.951 6.545-16.218 14.607-16.218h274.833c8.062 0 14.607 7.267 14.607 16.218v81.571c0 8.951-6.132 15.789-14.158 15.789h-52.6c-8.026 0-14.158 6.839-14.158 15.79v22.261Z" style="fill:#006fdf" transform="matrix(.95985 -.09066 .00597 .86394 -126.527 -234.72)"/><path d="M488.845 549.637v26.93h-89.086v-90.915c0-9.286 7.065-16.382 16.31-16.382h72.776v26.93H447.22v13.289h28.969v26.93H447.22v13.218h41.625ZM600.08 469.27v107.297H548.4c-15.797 0-28.055-4.078-36.773-12.234-8.719-8.157-13.078-18.422-13.078-30.797 0-12.047 3.972-22.114 11.918-30.199 7.945-8.086 17.847-12.129 29.707-12.129 6.562 0 12.023 1.007 16.382 3.023V469.27h43.524Zm-43.524 76.5v-19.055c-2.156-1.406-4.593-2.109-7.312-2.109-2.578 0-4.711 1.02-6.399 3.059-1.687 2.039-2.531 4.605-2.531 7.699 0 3.609 1.02 6.246 3.059 7.91 2.039 1.664 5.285 2.496 9.738 2.496h3.445Zm153.493-53.719v66.375c0 14.485-3.692 25.09-11.075 31.817-7.382 6.726-18.808 10.09-34.277 10.09-20.156 0-36.867-4.078-50.133-12.235v-38.461c10.36 10.078 21.891 15.118 34.594 15.118 11.719 0 17.578-3.61 17.578-10.829 0-.703-.07-1.453-.211-2.25-4.828 3.047-10.781 4.571-17.859 4.571-10.5 0-18.856-2.907-25.067-8.719-6.211-5.813-9.316-13.594-9.316-23.344 0-6.422 1.324-11.941 3.973-16.558 2.648-4.618 5.742-7.981 9.281-10.09 3.539-2.11 7.465-3.551 11.777-4.324 4.313-.774 11.625-1.161 21.938-1.161h48.797Zm-43.524 23.766h-.984c-9.703 0-14.555 3.539-14.555 10.617 0 2.906.867 5.215 2.602 6.926 1.734 1.711 4.031 2.566 6.89 2.566 2.531 0 4.547-.609 6.047-1.828v-18.281Zm146.32 28.477v14.836c-9.515 12.468-23.203 18.703-41.062 18.703-14.719 0-26.555-4.09-35.508-12.27-8.953-8.18-13.43-18.949-13.43-32.308 0-12.704 4.114-23.063 12.34-31.079 8.227-8.015 18.903-12.023 32.028-12.023 6.703 0 12.914 1.125 18.632 3.375 5.719 2.25 10.664 5.555 14.836 9.914 4.172 4.359 7.243 9.422 9.211 15.188 1.969 5.765 2.953 12.796 2.953 21.093h-44.367c1.594 4.313 4.266 7.688 8.016 10.125 3.75 2.438 8.039 3.657 12.867 3.657 9.75 0 17.578-3.071 23.484-9.211Zm-46.968-19.407h20.461c-.188-4.218-1.231-7.511-3.129-9.879-1.899-2.367-4.371-3.55-7.418-3.55-2.672 0-4.992 1.136-6.961 3.41-1.969 2.273-2.953 5.613-2.953 10.019Zm-315.352 83.014v53.649h-25.84c-7.898 0-14.027-2.039-18.386-6.117-4.36-4.078-6.54-9.211-6.54-15.399 0-6.023 1.987-11.056 5.959-15.099 3.973-4.043 8.924-6.065 14.854-6.065 3.281 0 6.012.504 8.191 1.512v-12.481h21.762Zm-21.762 38.25v-9.527c-1.078-.703-2.296-1.055-3.656-1.055-1.289 0-2.355.51-3.199 1.53-.844 1.019-1.266 2.302-1.266 3.849 0 1.805.51 3.123 1.53 3.955 1.019.832 2.642 1.248 4.869 1.248h1.722Zm73.442-.738v7.418c-4.758 6.235-11.602 9.352-20.531 9.352-7.36 0-13.278-2.045-17.754-6.135-4.477-4.09-6.715-9.475-6.715-16.154 0-6.352 2.056-11.532 6.17-15.539 4.113-4.008 9.451-6.012 16.013-6.012 3.352 0 6.457.562 9.317 1.687 2.859 1.125 5.332 2.778 7.418 4.957a20.364 20.364 0 0 1 4.605 7.594c.985 2.883 1.477 6.399 1.477 10.547h-22.184c.797 2.156 2.133 3.844 4.008 5.063 1.875 1.218 4.02 1.828 6.434 1.828 4.875 0 8.789-1.536 11.742-4.606Zm-23.485-9.703h10.231c-.094-2.109-.615-3.756-1.565-4.939-.949-1.184-2.185-1.776-3.709-1.776-1.335 0-2.496.569-3.48 1.705-.984 1.137-1.477 2.807-1.477 5.01Zm51.786-16.488v5.308c3.515-3.773 7.863-5.66 13.043-5.66 6.164 0 10.722 2.438 13.675 7.313 2.414-2.532 4.834-4.383 7.26-5.555 2.426-1.172 5.162-1.758 8.209-1.758 4.594 0 8.215 1.406 10.863 4.219 2.649 2.812 3.973 6.773 3.973 11.883v26.578h-20.531v-25.277c0-1.5-.369-2.666-1.108-3.499-.738-.832-1.705-1.248-2.9-1.248-1.336 0-2.66.457-3.973 1.372v28.652h-20.531v-25.277c0-1.477-.357-2.637-1.072-3.481-.715-.844-1.694-1.266-2.936-1.266-1.289 0-2.613.481-3.972 1.442v28.582h-21.727v-42.328h21.727Zm86.484 42.961c-6.703 0-12.229-2.022-16.576-6.065-4.348-4.043-6.522-9.31-6.522-15.802 0-6.493 2.145-11.778 6.434-15.856 4.289-4.078 9.844-6.117 16.664-6.117 6.867 0 12.451 2.039 16.752 6.117 4.301 4.078 6.451 9.363 6.451 15.856 0 6.468-2.15 11.73-6.451 15.785-4.301 4.054-9.885 6.082-16.752 6.082Zm0-27.141c-1.406 0-2.549.451-3.428 1.354-.879.902-1.318 2.068-1.318 3.498 0 1.429.439 2.589 1.318 3.48s2.022 1.336 3.428 1.336c1.43 0 2.59-.445 3.48-1.336.891-.891 1.336-2.051 1.336-3.48 0-1.453-.445-2.625-1.336-3.516-.89-.891-2.05-1.336-3.48-1.336Zm26.367 22.395 4.852-11.883c1.5 2.015 3.304 3.592 5.414 4.728 2.109 1.137 4.183 1.705 6.222 1.705 1.266 0 2.28-.281 3.041-.843.762-.563 1.143-1.289 1.143-2.18 0-.867-.322-1.623-.967-2.268-.644-.644-2.349-1.365-5.115-2.162-2.789-.797-5.074-1.67-6.855-2.619-1.782-.949-3.264-2.349-4.448-4.201-1.183-1.852-1.775-3.867-1.775-6.047 0-4.219 1.81-7.494 5.431-9.826 3.622-2.332 8.702-3.498 15.241-3.498 7.359 0 13.652 1.207 18.879 3.621l-5.203 10.793c-3.422-3.07-6.727-4.606-9.915-4.606-1.054 0-1.91.235-2.566.704-.656.468-.984 1.066-.984 1.793 0 .867.334 1.617 1.002 2.25.668.632 2.443 1.312 5.326 2.039 2.929.726 5.349 1.558 7.26 2.496 1.91.937 3.433 2.343 4.57 4.218 1.137 1.875 1.705 4.02 1.705 6.434 0 4.359-1.764 7.799-5.291 10.318-3.527 2.52-8.092 3.78-13.693 3.78-7.594 0-15.352-1.582-23.274-4.746Z" style="fill:#ffd25e" transform="matrix(.6562 -.06198 .00453 .65578 -79.766 -248.57)"/><circle cx="385.257" cy="534.41" r="72.367" style="fill:#004183" transform="matrix(1 -.09445 .0069 .99935 -316.58 -374.456)"/><g transform="matrix(1 -.09445 .0069 .99935 -301.76 -390.778)"><circle cx="385.257" cy="534.41" r="72.367" style="fill:#006fdf"/><clipPath id="a"><circle cx="385.257" cy="534.41" r="72.367"/></clipPath><g clip-path="url(#a)"><path d="M406.079 181.093a21.82 21.82 0 0 1-3.24 3.851c-3.513 3.154-8.389 5.445-12.232 5.445-6.251 0-11.734-6.237-11.734-13.347.079-2.582.88-5.091 2.312-7.241 1.01 6.995 8.51 11.807 15.73 11.807a17.8 17.8 0 0 0 8.135-1.825c.438-.208.81-.501 1.235-.076a.645.645 0 0 1 .174.734c-.075.147-.154.292-.236.438l-.144.214Zm-29.338-22.118a15.264 15.264 0 0 1 10.196 3.559l-.076-.001a5.671 5.671 0 0 0-2.522.589l-.002-.027c-4.435 1.876-8.351 8.22-8.351 13.947a16.977 16.977 0 0 0 7.621 14.154 23.172 23.172 0 0 1-19.856-22.872v-.011c.003-5.149 5.829-9.338 12.99-9.338Zm10.006-13.752c15.156 0 23.192 11.085 23.192 19.636a11.088 11.088 0 0 1-11.051 11.121c-6.784 0-8.25-2.062-8.25-2.894 0-.4.259-.642.625-1.061a5.862 5.862 0 0 0 1.35-3.708h.005c0-6.754-7.108-12.229-15.877-12.229a18.486 18.486 0 0 0-11.188 3.553 22.36 22.36 0 0 1 21.194-14.418Z" style="fill:#ffd25e" transform="translate(-648.667 84.837) scale(2.67271)"/><path d="m363.712 172.052.013.002-3.713-4.071c.001-2.407.826-4.7 2.351-6.668-.582-1.006-.723-2.211-.319-3.275a25.682 25.682 0 0 1 9.56-12.117 25.819 25.819 0 0 1 14.82-4.458h.02c18.002.011 27.234 13.561 27.234 23.71.012 3.855-1.486 7.568-4.203 10.302-.421.424-.866.819-1.332 1.183l.516.391.897 1.053.569 1.375.109 1.396-.308 1.272a3.453 3.453 0 0 1-.111.239c-.097.19-.199.379-.307.568a3.561 3.561 0 0 1-.114.186l-.149.222-.005.006a25.087 25.087 0 0 1-3.72 4.421l-.058.053c-4.154 3.73-9.986 6.305-14.529 6.305-1.421 0-2.82-.237-4.163-.676-.711 1.066-1.992 1.644-3.375 1.444a27.285 27.285 0 0 1-16.694-9.134c-4.284-4.935-6.673-11.239-6.689-17.774v-.021l3.7 4.066c-.176-.035-2.116-.451-3.115-1.991a4.008 4.008 0 0 1-.584-1.963c.02.8.249 1.445.584 1.963.66 1.092 1.813 1.881 3.128 2.005.115.011.229.016.342.017a23.17 23.17 0 0 0 19.54 19.113 16.983 16.983 0 0 1-7.621-14.154c0-4.382 2.293-9.126 5.357-11.952.049.065.1.129.152.19.682.857 1.688 1.442 2.79 1.554l-.003-.002.024.004-.579-2.227a11.176 11.176 0 0 0-1.028-.607c.222-.152.447-.294.674-.425.059.159.128.313.206.463l-.132-.505c.294-.166.591-.313.89-.44l.002.027a5.76 5.76 0 0 1 .765-.312c.313.817.72 1.615 1.069 2.239l.91-.874c.017-.175.034-.356.05-.541a8.794 8.794 0 0 0-1.116-1.039c.279-.041.561-.062.844-.062l.076.001a15.264 15.264 0 0 0-10.196-3.559c-7.161 0-12.987 4.189-12.99 9.338v.011a23.19 23.19 0 0 0 .27 3.472l-.296.27-.013-.014Zm17.783-6.772a4.744 4.744 0 0 1-.146-.196c.229-.211.462-.411.699-.599l2.234 2.347c-.23-.043-1.771-.365-2.787-1.552Zm5.587-1.097-.904.875c.301.539.557.946.671 1.122.035-.261.138-1.038.233-1.997Zm18.997 16.91.144-.214c.082-.146.161-.291.236-.438a.637.637 0 0 0-.174-.734c-.425-.425-.797-.132-1.235.076a17.8 17.8 0 0 1-8.135 1.825c-7.22 0-14.72-4.812-15.73-11.807a13.826 13.826 0 0 0-2.312 7.241c0 7.11 5.483 13.347 11.734 13.347 3.843 0 8.719-2.291 12.232-5.445a21.82 21.82 0 0 0 3.24-3.851Zm-21.84-16.121c.322.346.701.638 1.12.859l.027-.026a4.162 4.162 0 0 1-.692-.471 11.098 11.098 0 0 0-.455-.362Zm2.596 1.303.001-.007a3.986 3.986 0 0 1-1.437-.456l-.026.026c.449.235.943.388 1.462.437Zm5.029-1.694c-3.054.34-1.069 4.447.078 6.425a5.881 5.881 0 0 1-.484.77c-1.498-.621-2.579-2.125-2.579-3.787a6.13 6.13 0 0 0-.313-1.942 3.543 3.543 0 0 1-1.359.245l-.234-.011c.07.005.14.009.21.01-.334 0-.662.083-.962.231a3.35 3.35 0 0 1-.494.198 7.783 7.783 0 0 0-1.584 1.05c.385.532.647 1.153.742 1.813.246 1.701 1.043 3.186 2.192 4.411l-.042-.119-.136-1.116.342-1.715s1.118-1.633 1.066-1.571c.353-.425.564-.952.567-1.505-.01 1.671 1.076 3.187 2.583 3.809a5.712 5.712 0 0 1-.194.248c-.366.419-.625.661-.625 1.061 0 .832 1.466 2.894 8.25 2.894a11.088 11.088 0 0 0 11.051-11.121c0-8.551-8.036-19.636-23.192-19.636a22.357 22.357 0 0 0-21.194 14.418 18.486 18.486 0 0 1 11.188-3.553c7.077 0 13.073 3.567 15.123 8.493Zm-5.029 1.694c.116.011.232.016.348.016a3.337 3.337 0 0 1-.226-.011l-.122-.005Zm.138.006-.062-.005.046.004.016.001Z" style="fill:#006fdf" transform="translate(-648.667 84.837) scale(2.67271)"/></g></g></svg>