<?xml version="1.0" encoding="UTF-8" standalone="no"?>
<!DOCTYPE svg PUBLIC "-//W3C//DTD SVG 1.1//EN" "http://www.w3.org/Graphics/SVG/1.1/DTD/svg11.dtd">
<svg width="100%" height="100%" viewBox="0 0 201 190" version="1.1" xmlns="http://www.w3.org/2000/svg" xmlns:xlink="http://www.w3.org/1999/xlink" xml:space="preserve" xmlns:serif="http://www.serif.com/" style="fill-rule:evenodd;clip-rule:evenodd;stroke-linejoin:round;stroke-miterlimit:2;">
    <g transform="matrix(1,0,0,1,-264.562,-219.828)">
        <g transform="matrix(0.97636,-0.216149,-0.0774293,1.04135,24.6809,56.8239)">
            <g transform="matrix(1,0,0,1,10.3013,13.6617)">
                <path d="M310.997,382.919C310.745,383.121 310.484,383.319 310.214,383.512L310.207,383.516C306.493,386.166 301.722,387.573 295.803,387.573C288.904,387.573 281.857,386.139 274.66,383.264C271.697,382.081 269.068,379.796 267.49,377.032C265.913,374.269 265.551,371.317 266.505,368.981L269.484,361.685L267.796,357.986L267.08,353.032C267.08,348.091 268.866,344.072 272.661,341.124C272.724,341.073 272.789,341.023 272.853,340.972C272.917,340.921 272.981,340.871 273.046,340.82C273.11,340.769 273.174,340.719 273.239,340.668C273.303,340.617 273.367,340.567 273.432,340.516C273.495,340.465 273.56,340.414 273.625,340.364C273.688,340.313 273.752,340.262 273.817,340.212C273.881,340.161 273.945,340.11 274.01,340.06C274.074,340.009 274.138,339.958 274.203,339.908C274.267,339.857 274.331,339.806 274.396,339.756C274.459,339.705 274.524,339.654 274.588,339.604C274.652,339.553 274.716,339.502 274.781,339.452C274.845,339.401 274.909,339.35 274.974,339.3C275.038,339.249 275.102,339.198 275.167,339.148C275.217,339.108 275.267,339.068 275.319,339.028C273.426,338.388 271.583,337.269 270.021,335.774C267.479,333.34 265.981,330.193 265.981,327.288L265.981,264.418C265.981,262.111 266.919,260.218 268.508,259.015C268.571,258.963 268.635,258.912 268.701,258.863C268.764,258.811 268.828,258.76 268.893,258.711C268.957,258.659 269.021,258.608 269.086,258.559C269.149,258.507 269.214,258.456 269.279,258.407C269.342,258.355 269.406,258.304 269.472,258.255C269.535,258.203 269.599,258.152 269.665,258.103C269.728,258.051 269.792,258 269.857,257.951C269.92,257.899 269.985,257.848 270.05,257.799C270.113,257.747 270.178,257.696 270.243,257.647C270.306,257.595 270.37,257.544 270.436,257.495C270.499,257.443 270.563,257.392 270.628,257.343C270.692,257.291 270.756,257.24 270.821,257.191C270.884,257.139 270.949,257.088 271.014,257.038C271.077,256.987 271.141,256.936 271.207,256.886C271.27,256.835 271.334,256.784 271.4,256.734C271.463,256.683 271.527,256.632 271.592,256.582C271.656,256.53 271.72,256.48 271.785,256.43C271.848,256.378 271.913,256.328 271.978,256.278C272.041,256.226 272.105,256.176 272.171,256.126C272.234,256.074 272.298,256.024 272.364,255.974C272.427,255.922 272.491,255.872 272.556,255.822C272.619,255.77 272.684,255.72 272.749,255.67C272.812,255.618 272.877,255.568 272.942,255.518C273.005,255.466 273.069,255.416 273.135,255.366C273.198,255.314 273.262,255.263 273.327,255.214C273.391,255.162 273.455,255.111 273.52,255.062C273.583,255.01 273.648,254.959 273.713,254.91C273.776,254.858 273.84,254.807 273.906,254.758C273.969,254.706 274.033,254.655 274.099,254.606C274.162,254.554 274.226,254.503 274.291,254.454C274.355,254.402 274.419,254.351 274.484,254.302C274.547,254.25 274.612,254.199 274.677,254.15C274.74,254.098 274.804,254.047 274.87,253.998C274.933,253.946 274.997,253.895 275.063,253.846C275.126,253.794 275.19,253.743 275.255,253.694C275.318,253.642 275.383,253.591 275.448,253.541C275.511,253.49 275.576,253.439 275.641,253.389C275.704,253.338 275.768,253.287 275.834,253.237C275.897,253.186 275.961,253.135 276.026,253.085C276.09,253.034 276.154,252.983 276.219,252.933C276.282,252.881 276.347,252.831 276.412,252.781C276.475,252.729 276.539,252.679 276.605,252.629C276.668,252.577 276.732,252.527 276.798,252.477C276.861,252.425 276.925,252.375 276.99,252.325C277.054,252.273 277.118,252.223 277.183,252.173C277.246,252.121 277.311,252.071 277.376,252.021C277.439,251.969 277.503,251.919 277.569,251.869C277.632,251.817 277.696,251.766 277.762,251.717C277.825,251.665 277.889,251.614 277.954,251.565C278.017,251.513 278.082,251.462 278.147,251.413C278.21,251.361 278.275,251.31 278.34,251.261C278.403,251.209 278.467,251.158 278.533,251.109C278.596,251.057 278.66,251.006 278.725,250.957C278.789,250.905 278.853,250.854 278.918,250.805C278.981,250.753 279.046,250.702 279.111,250.653C279.174,250.601 279.238,250.55 279.304,250.501C279.367,250.449 279.431,250.398 279.497,250.349C279.56,250.297 279.624,250.246 279.689,250.197C279.753,250.145 279.817,250.094 279.882,250.045C279.945,249.993 280.01,249.942 280.075,249.892C280.138,249.841 280.202,249.79 280.268,249.74C280.331,249.689 280.395,249.638 280.461,249.588C280.524,249.537 280.588,249.486 280.653,249.436C280.716,249.385 280.781,249.334 280.846,249.284C280.909,249.232 280.974,249.182 281.039,249.132C281.102,249.08 281.166,249.03 281.232,248.98C281.295,248.928 281.359,248.878 281.424,248.828C281.488,248.776 281.552,248.726 281.617,248.676C281.68,248.624 281.745,248.574 281.81,248.524C281.873,248.472 281.937,248.422 282.003,248.372C282.066,248.32 282.13,248.27 282.196,248.22C282.259,248.168 282.323,248.117 282.388,248.068C282.452,248.016 282.516,247.965 282.581,247.916C282.644,247.864 282.709,247.813 282.774,247.764C284,246.758 285.648,246.184 287.573,246.184L313.597,246.184C325.277,246.184 334.005,250.491 340.041,257.171C340.712,257.909 341.346,258.672 341.94,259.457C342.105,259.302 342.279,259.155 342.46,259.017C342.523,258.965 342.588,258.915 342.653,258.865C342.716,258.813 342.78,258.763 342.846,258.713C342.909,258.661 342.973,258.611 343.039,258.561C343.102,258.509 343.166,258.459 343.231,258.409C343.295,258.357 343.359,258.306 343.424,258.257C343.487,258.205 343.552,258.154 343.617,258.105C343.68,258.053 343.744,258.002 343.81,257.953C343.873,257.901 343.937,257.85 344.003,257.801C344.066,257.749 344.13,257.698 344.195,257.649C344.258,257.597 344.323,257.546 344.388,257.497C344.451,257.445 344.516,257.394 344.581,257.345C344.644,257.293 344.708,257.242 344.774,257.193C344.837,257.141 344.901,257.09 344.966,257.041C345.03,256.989 345.094,256.938 345.159,256.889C345.222,256.837 345.287,256.786 345.352,256.737C345.415,256.685 345.479,256.634 345.545,256.585C345.608,256.533 345.672,256.482 345.738,256.432C345.801,256.381 345.865,256.33 345.93,256.28C345.994,256.229 346.058,256.178 346.123,256.128C346.186,256.077 346.251,256.026 346.316,255.976C346.379,255.924 346.443,255.874 346.509,255.824C346.572,255.772 346.636,255.722 346.702,255.672C346.765,255.62 346.829,255.57 346.894,255.52C346.957,255.468 347.022,255.418 347.087,255.368C347.15,255.316 347.215,255.266 347.28,255.216C347.343,255.164 347.407,255.114 347.473,255.064C347.536,255.012 347.6,254.962 347.665,254.912C347.729,254.86 347.793,254.81 347.858,254.76C347.921,254.708 347.986,254.657 348.051,254.608C348.114,254.556 348.178,254.505 348.244,254.456C348.307,254.404 348.371,254.353 348.437,254.304C348.5,254.252 348.564,254.201 348.629,254.152C348.693,254.1 348.757,254.049 348.822,254C348.885,253.948 348.95,253.897 349.015,253.848C349.078,253.796 349.142,253.745 349.208,253.696C349.271,253.644 349.335,253.593 349.401,253.544C349.464,253.492 349.528,253.441 349.593,253.392C349.656,253.34 349.721,253.289 349.786,253.24C349.849,253.188 349.914,253.137 349.979,253.088C350.042,253.036 350.106,252.985 350.172,252.936C350.235,252.884 350.299,252.833 350.364,252.783C350.428,252.732 350.492,252.681 350.557,252.631C350.62,252.58 350.685,252.529 350.75,252.479C350.813,252.428 350.877,252.377 350.943,252.327C351.006,252.275 351.07,252.225 351.136,252.175C351.199,252.123 351.263,252.073 351.328,252.023C351.392,251.971 351.456,251.921 351.521,251.871C351.584,251.819 351.649,251.769 351.714,251.719C351.777,251.667 351.841,251.617 351.907,251.567C351.97,251.515 352.034,251.465 352.099,251.415C352.163,251.363 352.227,251.313 352.292,251.263C352.355,251.211 352.42,251.161 352.485,251.111C352.548,251.059 352.613,251.008 352.678,250.959C352.741,250.907 352.805,250.856 352.871,250.807C352.934,250.755 352.998,250.704 353.063,250.655C353.127,250.603 353.191,250.552 353.256,250.503C353.319,250.451 353.384,250.4 353.449,250.351C353.512,250.299 353.576,250.248 353.642,250.199C353.705,250.147 353.769,250.096 353.835,250.047C353.898,249.995 353.962,249.944 354.027,249.895C354.091,249.843 354.155,249.792 354.22,249.743C354.283,249.691 354.348,249.64 354.413,249.591C354.476,249.539 354.54,249.488 354.606,249.439C354.669,249.387 354.733,249.336 354.798,249.286C354.862,249.235 354.926,249.184 354.991,249.134C355.054,249.083 355.119,249.032 355.184,248.982C355.247,248.931 355.311,248.88 355.377,248.83C355.44,248.779 355.504,248.728 355.57,248.678C355.633,248.626 355.697,248.576 355.762,248.526C355.826,248.474 355.89,248.424 355.955,248.374C356.018,248.322 356.083,248.272 356.148,248.222C356.211,248.17 356.275,248.12 356.341,248.07C356.404,248.018 356.468,247.968 356.534,247.918C356.597,247.866 356.661,247.816 356.726,247.766C357.963,246.75 359.621,246.185 361.527,246.185L374.444,246.185C379.732,246.185 385.309,250.463 386.913,255.751L387.353,257.2C387.356,257.198 387.359,257.195 387.362,257.193C387.426,257.141 387.49,257.09 387.555,257.041C387.618,256.989 387.683,256.938 387.748,256.889C387.811,256.837 387.875,256.786 387.941,256.737C388.004,256.685 388.068,256.634 388.133,256.585C388.197,256.533 388.261,256.482 388.326,256.432C388.389,256.381 388.454,256.33 388.519,256.28C388.582,256.229 388.646,256.178 388.712,256.128C388.775,256.077 388.839,256.026 388.905,255.976C388.968,255.924 389.032,255.874 389.097,255.824C389.161,255.772 389.225,255.722 389.29,255.672C389.353,255.62 389.418,255.57 389.483,255.52C389.546,255.468 389.61,255.418 389.676,255.368C389.739,255.316 389.803,255.266 389.869,255.216C389.932,255.164 389.996,255.114 390.061,255.064C390.125,255.012 390.189,254.962 390.254,254.912C390.317,254.86 390.382,254.81 390.447,254.76C390.51,254.708 390.574,254.657 390.64,254.608C390.703,254.556 390.767,254.505 390.832,254.456C390.896,254.404 390.96,254.353 391.025,254.304C391.088,254.252 391.153,254.201 391.218,254.152C391.281,254.1 391.345,254.049 391.411,254C391.474,253.948 391.538,253.897 391.604,253.848C391.667,253.796 391.731,253.745 391.796,253.696C391.86,253.644 391.924,253.593 391.989,253.544C392.052,253.492 392.117,253.441 392.182,253.392C392.245,253.34 392.309,253.289 392.375,253.24C392.438,253.188 392.502,253.137 392.568,253.088C392.631,253.036 392.695,252.985 392.76,252.936C392.823,252.884 392.888,252.833 392.953,252.783C393.016,252.732 393.081,252.681 393.146,252.631C393.209,252.58 393.273,252.529 393.339,252.479C393.402,252.428 393.466,252.377 393.531,252.327C393.595,252.275 393.659,252.225 393.724,252.175C393.787,252.123 393.852,252.073 393.917,252.023C393.98,251.971 394.044,251.921 394.11,251.871C394.173,251.819 394.237,251.769 394.303,251.719C394.366,251.667 394.43,251.617 394.495,251.567C394.559,251.515 394.623,251.465 394.688,251.415C394.751,251.363 394.816,251.313 394.881,251.263C394.944,251.211 395.008,251.16 395.074,251.111C395.137,251.059 395.201,251.008 395.267,250.959C395.33,250.907 395.394,250.856 395.459,250.807C395.522,250.755 395.587,250.704 395.652,250.655C395.715,250.603 395.78,250.552 395.845,250.503C395.908,250.451 395.972,250.4 396.038,250.351C396.101,250.299 396.165,250.248 396.23,250.199C396.294,250.147 396.358,250.096 396.423,250.047C396.486,249.995 396.551,249.944 396.616,249.895C396.679,249.843 396.743,249.792 396.809,249.743C396.872,249.691 396.936,249.64 397.002,249.591C397.065,249.539 397.129,249.488 397.194,249.439C397.258,249.387 397.322,249.336 397.387,249.286C397.45,249.235 397.515,249.184 397.58,249.134C397.643,249.083 397.707,249.032 397.773,248.982C397.836,248.931 397.9,248.88 397.966,248.83C398.029,248.779 398.093,248.728 398.158,248.678C398.221,248.626 398.286,248.576 398.351,248.526C398.414,248.474 398.479,248.424 398.544,248.374C398.607,248.322 398.671,248.272 398.737,248.222C398.8,248.17 398.864,248.12 398.929,248.07C398.993,248.018 399.057,247.968 399.122,247.918C399.185,247.866 399.25,247.816 399.315,247.766C400.555,246.748 402.215,246.185 404.115,246.185L420.92,246.185C422.71,246.185 424.574,246.683 426.317,247.578C428.119,246.24 430.695,245.814 433.503,246.522C437.739,247.589 441.586,251.004 443.11,255.05L466.789,317.921C467.791,320.583 467.664,323.21 466.438,325.168C466.036,325.809 465.529,326.36 464.934,326.811C464.871,326.863 464.806,326.913 464.741,326.963C464.678,327.015 464.613,327.065 464.548,327.115C464.485,327.167 464.421,327.217 464.355,327.267C464.292,327.319 464.228,327.369 464.163,327.419C464.099,327.471 464.035,327.521 463.97,327.571C463.907,327.623 463.842,327.674 463.777,327.723C463.714,327.775 463.65,327.826 463.584,327.875C463.521,327.927 463.457,327.978 463.391,328.027C463.328,328.079 463.264,328.13 463.199,328.179C463.135,328.231 463.071,328.282 463.006,328.331C462.943,328.383 462.878,328.434 462.813,328.483C462.75,328.535 462.686,328.586 462.62,328.635C462.557,328.687 462.493,328.738 462.428,328.787C462.364,328.839 462.3,328.89 462.235,328.939C462.172,328.991 462.107,329.042 462.042,329.091C461.979,329.143 461.914,329.194 461.849,329.243C461.786,329.295 461.722,329.346 461.656,329.395C461.593,329.447 461.529,329.498 461.464,329.548C461.4,329.599 461.336,329.65 461.271,329.7C461.208,329.751 461.143,329.802 461.078,329.852C461.015,329.903 460.951,329.954 460.885,330.004C460.822,330.056 460.758,330.106 460.692,330.156C460.629,330.208 460.565,330.258 460.5,330.308C460.436,330.36 460.372,330.41 460.307,330.46C460.244,330.512 460.179,330.562 460.114,330.612C460.051,330.664 459.987,330.714 459.921,330.764C459.858,330.816 459.794,330.866 459.729,330.916C459.665,330.968 459.601,331.018 459.536,331.068C459.473,331.12 459.408,331.17 459.343,331.22C459.28,331.272 459.216,331.323 459.15,331.372C459.087,331.424 459.023,331.475 458.957,331.524C458.894,331.576 458.83,331.627 458.765,331.676C458.701,331.728 458.637,331.779 458.572,331.828C458.509,331.88 458.444,331.931 458.379,331.98C458.316,332.032 458.252,332.083 458.186,332.132C458.123,332.184 458.059,332.235 457.993,332.284C457.93,332.336 457.866,332.387 457.801,332.436C457.756,332.473 457.711,332.509 457.666,332.544C458.283,333.092 458.88,333.668 459.457,334.271C462.318,337.26 464.486,340.711 465.836,344.664C466.844,347.618 467.459,351.236 467.459,355.485C467.459,355.765 467.445,356.038 467.418,356.305C467.445,356.587 467.459,356.867 467.459,357.147L467.459,362.54C467.459,364.155 466.995,365.613 466.114,366.767C464.845,368.43 463.428,369.87 461.863,371.09C461.799,371.141 461.735,371.192 461.671,371.242C461.607,371.293 461.542,371.344 461.478,371.394C461.414,371.446 461.35,371.496 461.285,371.547C461.221,371.598 461.157,371.648 461.092,371.699C461.028,371.75 460.964,371.8 460.9,371.851C460.836,371.902 460.771,371.952 460.707,372.003C460.643,372.054 460.578,372.104 460.514,372.155C460.45,372.206 460.386,372.256 460.321,372.307C460.257,372.358 460.193,372.408 460.128,372.459C460.064,372.51 460,372.561 459.936,372.611C459.872,372.662 459.807,372.713 459.743,372.763C459.679,372.814 459.615,372.865 459.55,372.915C459.486,372.966 459.422,373.017 459.357,373.067C459.293,373.118 459.229,373.169 459.164,373.219C459.1,373.27 459.036,373.321 458.972,373.371C458.908,373.422 458.843,373.473 458.779,373.523C458.715,373.574 458.651,373.625 458.586,373.675C458.522,373.726 458.458,373.777 458.393,373.827C458.329,373.878 458.265,373.929 458.201,373.979C458.137,374.03 458.072,374.081 458.008,374.131C457.944,374.182 457.88,374.233 457.815,374.283C457.751,374.334 457.687,374.385 457.622,374.435C457.558,374.486 457.494,374.537 457.429,374.587C457.365,374.638 457.301,374.689 457.237,374.739C457.173,374.79 457.108,374.841 457.044,374.891C456.98,374.943 456.916,374.993 456.851,375.043C456.787,375.095 456.723,375.145 456.658,375.196C456.594,375.247 456.53,375.297 456.465,375.348C456.401,375.399 456.337,375.449 456.273,375.5C456.209,375.551 456.144,375.601 456.08,375.652C456.016,375.703 455.952,375.753 455.887,375.804C455.823,375.855 455.759,375.905 455.694,375.956C455.63,376.007 455.566,376.057 455.502,376.108C455.438,376.159 455.373,376.21 455.309,376.26C455.245,376.311 455.181,376.362 455.116,376.412C455.052,376.463 454.988,376.514 454.923,376.564C454.859,376.615 454.795,376.666 454.73,376.716C454.666,376.767 454.602,376.818 454.538,376.868C454.474,376.919 454.409,376.97 454.345,377.02C454.281,377.071 454.217,377.122 454.152,377.172C454.088,377.223 454.024,377.274 453.959,377.324C453.895,377.375 453.831,377.426 453.767,377.476C453.702,377.527 453.638,377.578 453.574,377.628C453.51,377.679 453.445,377.73 453.381,377.78C453.317,377.831 453.253,377.882 453.188,377.932C453.124,377.983 453.06,378.034 452.995,378.084C452.931,378.135 452.867,378.186 452.803,378.236C452.739,378.287 452.674,378.338 452.61,378.388C452.546,378.439 452.482,378.49 452.417,378.54C452.353,378.592 452.289,378.642 452.224,378.693C452.16,378.744 452.096,378.794 452.031,378.845C451.967,378.896 451.903,378.946 451.839,378.997C451.775,379.048 451.71,379.098 451.646,379.149C451.582,379.2 451.518,379.25 451.453,379.301C451.389,379.352 451.325,379.402 451.26,379.453C451.196,379.504 451.132,379.554 451.068,379.605C451.004,379.656 450.939,379.707 450.875,379.757C450.811,379.808 450.746,379.859 450.682,379.909C450.618,379.96 450.554,380.011 450.489,380.061C450.425,380.112 450.361,380.163 450.296,380.213C450.232,380.264 450.168,380.315 450.104,380.365C450.04,380.416 449.975,380.467 449.911,380.517C449.847,380.568 449.783,380.619 449.718,380.669C449.654,380.72 449.59,380.771 449.525,380.821C449.461,380.872 449.397,380.923 449.332,380.973C449.268,381.024 449.204,381.075 449.14,381.125C449.076,381.176 449.011,381.227 448.947,381.277C448.883,381.328 448.819,381.379 448.754,381.429C448.69,381.48 448.626,381.531 448.561,381.581C448.497,381.632 448.433,381.683 448.369,381.733C448.305,381.784 448.24,381.835 448.176,381.885C448.112,381.936 448.047,381.987 447.983,382.037C447.919,382.088 447.855,382.139 447.79,382.189C447.726,382.241 447.662,382.291 447.597,382.342C443.216,385.836 437.659,387.573 430.94,387.573C422.003,387.573 414.881,384.464 409.444,379.511C409.434,379.502 409.423,379.492 409.413,379.482C409.366,379.44 409.32,379.397 409.273,379.354C409.232,379.387 409.191,379.419 409.149,379.451C409.085,379.503 409.021,379.554 408.956,379.603C408.893,379.655 408.828,379.706 408.763,379.755C408.7,379.807 408.636,379.858 408.57,379.907C408.507,379.959 408.443,380.01 408.378,380.059C408.314,380.111 408.25,380.162 408.185,380.211C408.122,380.263 408.057,380.314 407.992,380.363C407.929,380.415 407.865,380.466 407.799,380.515C407.736,380.567 407.672,380.618 407.606,380.667C407.543,380.719 407.479,380.77 407.414,380.819C407.35,380.871 407.286,380.922 407.221,380.972C407.158,381.023 407.093,381.074 407.028,381.124C406.965,381.175 406.901,381.226 406.835,381.276C406.772,381.327 406.708,381.378 406.642,381.428C406.579,381.479 406.515,381.53 406.45,381.58C406.387,381.632 406.322,381.682 406.257,381.732C406.194,381.784 406.129,381.834 406.064,381.884C406.001,381.936 405.937,381.986 405.871,382.036C405.808,382.088 405.744,382.138 405.679,382.188C405.615,382.24 405.551,382.29 405.486,382.34C405.423,382.392 405.358,382.442 405.293,382.492C405.23,382.544 405.166,382.594 405.1,382.644C405.037,382.696 404.973,382.747 404.907,382.796C404.844,382.848 404.78,382.899 404.715,382.948C404.651,383 404.587,383.051 404.522,383.1C404.459,383.152 404.394,383.203 404.329,383.252C404.266,383.304 404.202,383.355 404.136,383.404C404.073,383.456 404.009,383.507 403.943,383.556C403.88,383.608 403.816,383.659 403.751,383.708C403.688,383.76 403.623,383.811 403.558,383.86C403.495,383.912 403.43,383.963 403.365,384.012C403.302,384.064 403.238,384.115 403.172,384.164C403.109,384.216 403.045,384.267 402.98,384.316C402.916,384.368 402.852,384.419 402.787,384.469C402.724,384.52 402.659,384.571 402.594,384.621C402.531,384.672 402.467,384.723 402.401,384.773C402.338,384.824 402.274,384.875 402.208,384.925C402.145,384.976 402.081,385.027 402.016,385.077C401.952,385.129 401.888,385.179 401.823,385.229C401.76,385.281 401.695,385.331 401.63,385.381C401.567,385.433 401.503,385.483 401.437,385.533C400.211,386.539 398.563,387.113 396.639,387.113L380.842,387.113C378.135,387.113 375.226,385.969 372.824,383.992C368.987,386.378 364.393,387.573 359.039,387.573C353.077,387.573 347.885,386.044 343.42,383.351C343.256,383.485 343.083,383.612 342.903,383.73C339.243,386.137 334.808,387.368 329.568,387.368C322.999,387.368 317.422,385.2 312.764,381.526C312.755,381.533 312.746,381.54 312.737,381.547C312.673,381.598 312.609,381.649 312.544,381.699C312.481,381.75 312.416,381.801 312.352,381.851C312.291,381.9 312.229,381.948 312.167,381.996C312.099,382.051 312.031,382.105 311.961,382.159C311.898,382.21 311.833,382.261 311.769,382.311C311.705,382.362 311.641,382.413 311.576,382.463C311.512,382.514 311.448,382.565 311.383,382.615C311.319,382.666 311.255,382.717 311.19,382.767C311.126,382.818 311.062,382.869 310.997,382.919Z" style="fill:rgb(0,65,131);"/>
            </g>
            <g transform="matrix(1,0,0,1,10.1296,13.434)">
                <path d="M272.868,353.767C272.482,353.265 272.13,352.739 271.82,352.195C270.242,349.432 269.88,346.479 270.834,344.144L273.813,336.848L272.125,333.148L271.41,328.194C271.41,322.942 273.428,318.73 277.734,315.741C277.714,315.715 277.695,315.689 277.675,315.663C277.617,315.587 277.56,315.511 277.504,315.435C277.446,315.36 277.388,315.284 277.332,315.207C277.274,315.132 277.217,315.056 277.16,314.98C277.102,314.904 277.045,314.828 276.989,314.752C276.931,314.677 276.873,314.601 276.817,314.524C276.759,314.449 276.702,314.373 276.645,314.297C276.587,314.221 276.53,314.145 276.474,314.069C276.415,313.994 276.358,313.918 276.302,313.841C276.244,313.766 276.187,313.69 276.13,313.614C276.072,313.538 276.015,313.462 275.959,313.386C275.9,313.31 275.843,313.235 275.787,313.158C275.729,313.083 275.671,313.007 275.615,312.931C275.557,312.855 275.5,312.779 275.443,312.703C275.385,312.627 275.328,312.551 275.272,312.475C275.214,312.4 275.156,312.324 275.1,312.247C275.042,312.172 274.985,312.096 274.928,312.02C274.87,311.944 274.813,311.868 274.757,311.792C274.699,311.717 274.641,311.641 274.585,311.564C274.527,311.489 274.47,311.413 274.413,311.337C274.355,311.261 274.298,311.185 274.242,311.109C274.184,311.033 274.126,310.958 274.07,310.881C274.012,310.806 273.955,310.73 273.898,310.654C273.84,310.578 273.783,310.502 273.727,310.426C273.668,310.35 273.611,310.274 273.555,310.198C273.497,310.123 273.44,310.047 273.383,309.971C273.325,309.895 273.268,309.819 273.211,309.743C273.153,309.667 273.096,309.591 273.04,309.515C272.982,309.44 272.924,309.364 272.868,309.287C271.237,307.168 270.311,304.735 270.311,302.451L270.311,239.581C270.311,235.526 273.209,232.75 277.443,232.75L303.467,232.75C315.147,232.75 323.876,237.057 329.911,243.737C330.63,244.528 331.305,245.345 331.936,246.19C331.994,246.266 332.051,246.342 332.108,246.418C332.165,246.493 332.223,246.569 332.279,246.645C332.337,246.721 332.394,246.797 332.451,246.873C332.509,246.949 332.566,247.025 332.623,247.101C332.68,247.176 332.738,247.252 332.795,247.328C332.852,247.404 332.909,247.48 332.966,247.556C333.024,247.632 333.081,247.708 333.138,247.784C333.195,247.859 333.253,247.935 333.31,248.011C333.367,248.087 333.424,248.163 333.481,248.239C333.539,248.315 333.596,248.391 333.653,248.467C333.711,248.543 333.768,248.618 333.825,248.695C333.882,248.77 333.939,248.846 333.996,248.922C334.054,248.998 334.111,249.074 334.168,249.15C334.226,249.226 334.283,249.302 334.34,249.378C334.397,249.453 334.455,249.529 334.511,249.605C334.569,249.681 334.626,249.757 334.683,249.833C334.741,249.909 334.798,249.985 334.855,250.061C334.912,250.136 334.97,250.212 335.026,250.288C335.084,250.364 335.141,250.44 335.198,250.516C335.256,250.592 335.313,250.668 335.37,250.744C335.427,250.82 335.485,250.895 335.542,250.972C335.599,251.047 335.656,251.123 335.713,251.199C335.771,251.275 335.828,251.351 335.885,251.427C335.943,251.503 336,251.578 336.057,251.655C336.114,251.73 336.171,251.806 336.228,251.882C336.286,251.958 336.343,252.034 336.4,252.11C336.458,252.186 336.515,252.262 336.572,252.338C336.629,252.413 336.686,252.489 336.743,252.565C336.801,252.641 336.858,252.717 336.915,252.793C336.973,252.869 337.03,252.945 337.087,253.021C337.144,253.096 337.202,253.172 337.258,253.248C337.316,253.324 337.373,253.4 337.43,253.476C337.488,253.552 337.545,253.628 337.602,253.704C337.659,253.78 337.717,253.855 337.773,253.932C337.831,254.007 337.888,254.083 337.945,254.159C338.003,254.235 338.06,254.311 338.117,254.387C338.174,254.463 338.232,254.539 338.289,254.615C338.346,254.69 338.403,254.766 338.46,254.842C338.518,254.918 338.575,254.994 338.632,255.07C338.675,255.126 338.717,255.182 338.759,255.239L344.621,237.251C345.533,234.451 348.093,232.751 351.397,232.751L364.315,232.751C368.245,232.751 372.336,235.116 374.836,238.501C374.894,238.577 374.951,238.652 375.007,238.729C375.065,238.804 375.123,238.88 375.179,238.957C375.237,239.032 375.294,239.108 375.351,239.184C375.409,239.26 375.466,239.336 375.522,239.412C375.58,239.487 375.638,239.563 375.694,239.64C375.752,239.715 375.809,239.791 375.866,239.867C375.924,239.943 375.981,240.019 376.038,240.095C376.096,240.17 376.153,240.246 376.209,240.323C376.267,240.398 376.324,240.474 376.381,240.55C376.439,240.626 376.496,240.702 376.553,240.778C376.611,240.854 376.668,240.929 376.724,241.006C376.782,241.081 376.84,241.157 376.896,241.234C376.954,241.309 377.011,241.385 377.068,241.461C377.126,241.537 377.183,241.612 377.239,241.689C377.297,241.764 377.355,241.84 377.411,241.917C377.469,241.992 377.526,242.068 377.583,242.144C377.641,242.22 377.698,242.296 377.754,242.372C377.812,242.447 377.87,242.523 377.926,242.6C377.984,242.675 378.041,242.751 378.098,242.827C378.156,242.903 378.213,242.979 378.269,243.055C378.328,243.13 378.385,243.206 378.441,243.283C378.499,243.358 378.556,243.434 378.613,243.51C378.671,243.586 378.728,243.662 378.785,243.738C378.843,243.814 378.9,243.889 378.956,243.966C379.014,244.041 379.072,244.117 379.128,244.194C379.186,244.269 379.243,244.345 379.3,244.421C379.358,244.497 379.415,244.573 379.471,244.649C379.529,244.724 379.587,244.8 379.643,244.877C379.701,244.952 379.758,245.028 379.815,245.104C379.873,245.18 379.93,245.256 379.986,245.332C380.044,245.407 380.102,245.483 380.158,245.56C380.216,245.635 380.273,245.711 380.33,245.787C380.388,245.863 380.445,245.939 380.501,246.015C380.559,246.09 380.617,246.166 380.673,246.243C380.731,246.318 380.788,246.394 380.845,246.471C380.903,246.546 380.96,246.622 381.017,246.698C381.075,246.774 381.132,246.849 381.188,246.926C381.246,247.001 381.303,247.077 381.36,247.154C381.418,247.229 381.475,247.305 381.532,247.381C381.59,247.457 381.647,247.533 381.703,247.609C381.761,247.684 381.819,247.76 381.875,247.837C381.933,247.912 381.99,247.988 382.047,248.064C382.105,248.14 382.162,248.216 382.218,248.292C382.272,248.362 382.326,248.433 382.378,248.504L387.416,236.7C388.475,234.219 390.917,232.751 393.986,232.751L410.791,232.751C412.58,232.751 414.445,233.249 416.188,234.144C417.989,232.806 420.566,232.38 423.374,233.088C426.461,233.866 429.341,235.891 431.266,238.498C431.324,238.573 431.381,238.649 431.438,238.726C431.496,238.801 431.553,238.877 431.609,238.953C431.667,239.029 431.725,239.105 431.781,239.181C431.839,239.256 431.896,239.332 431.953,239.409C432.011,239.484 432.068,239.56 432.124,239.636C432.182,239.712 432.24,239.788 432.296,239.864C432.354,239.939 432.411,240.015 432.468,240.092C432.526,240.167 432.583,240.243 432.64,240.319C432.698,240.395 432.755,240.471 432.811,240.547C432.869,240.622 432.926,240.698 432.983,240.775C433.041,240.85 433.098,240.926 433.155,241.002C433.213,241.078 433.27,241.154 433.326,241.23C433.384,241.306 433.442,241.381 433.498,241.458C433.556,241.533 433.613,241.609 433.67,241.686C433.728,241.761 433.785,241.837 433.841,241.913C433.899,241.989 433.957,242.065 434.013,242.141C434.071,242.216 434.128,242.292 434.185,242.369C434.243,242.444 434.3,242.52 434.356,242.596C434.414,242.672 434.472,242.748 434.528,242.824C434.586,242.899 434.643,242.975 434.7,243.052C434.758,243.127 434.815,243.203 434.871,243.279C434.93,243.355 434.987,243.431 435.043,243.507C435.101,243.582 435.158,243.658 435.215,243.735C435.273,243.81 435.33,243.886 435.387,243.962C435.445,244.038 435.502,244.114 435.558,244.19C435.616,244.266 435.674,244.341 435.73,244.418C435.788,244.493 435.845,244.569 435.902,244.646C435.96,244.721 436.017,244.797 436.073,244.873C436.131,244.949 436.189,245.025 436.245,245.101C436.303,245.176 436.36,245.252 436.417,245.329C436.475,245.404 436.532,245.48 436.588,245.556C436.646,245.632 436.704,245.708 436.76,245.784C436.818,245.859 436.875,245.935 436.932,246.012C436.99,246.087 437.047,246.163 437.103,246.239C437.161,246.315 437.219,246.391 437.275,246.467C437.333,246.543 437.39,246.618 437.447,246.695C437.505,246.77 437.562,246.846 437.619,246.923C437.677,246.998 437.734,247.074 437.79,247.15C437.848,247.226 437.905,247.302 437.962,247.378C438.02,247.453 438.077,247.529 438.134,247.606C438.192,247.681 438.249,247.757 438.305,247.833C438.363,247.909 438.421,247.985 438.477,248.061C438.535,248.136 438.592,248.212 438.649,248.289C438.707,248.364 438.764,248.44 438.82,248.516C438.878,248.592 438.936,248.668 438.992,248.744C439.05,248.819 439.107,248.895 439.164,248.972C439.222,249.047 439.279,249.123 439.335,249.199C439.393,249.275 439.451,249.351 439.507,249.427C439.565,249.503 439.622,249.578 439.679,249.655C439.737,249.73 439.794,249.806 439.85,249.883C439.908,249.958 439.966,250.034 440.022,250.11C440.08,250.186 440.137,250.262 440.194,250.338C440.252,250.413 440.309,250.489 440.366,250.566C440.424,250.641 440.481,250.717 440.537,250.793C440.595,250.869 440.652,250.945 440.709,251.021C440.767,251.096 440.824,251.172 440.881,251.249C440.939,251.324 440.996,251.4 441.052,251.476C441.11,251.552 441.168,251.628 441.224,251.704C442.019,252.737 442.664,253.867 443.11,255.05L466.789,317.921C467.791,320.583 467.664,323.21 466.438,325.168C465.211,327.126 462.997,328.24 460.326,328.24L455.17,328.24C455.212,328.295 455.254,328.35 455.295,328.405C455.353,328.481 455.41,328.557 455.467,328.633C455.525,328.708 455.582,328.784 455.639,328.86C455.696,328.936 455.753,329.012 455.81,329.088C455.868,329.164 455.925,329.24 455.982,329.316C456.04,329.391 456.097,329.467 456.154,329.543C456.211,329.619 456.269,329.695 456.325,329.771C456.383,329.847 456.44,329.923 456.497,329.999C456.555,330.075 456.612,330.15 456.669,330.227C456.726,330.302 456.784,330.378 456.84,330.454C456.898,330.53 456.955,330.606 457.012,330.682C457.07,330.758 457.127,330.833 457.184,330.91C457.241,330.985 457.299,331.061 457.355,331.137C457.413,331.213 457.47,331.289 457.527,331.365C457.585,331.441 457.642,331.517 457.699,331.593C457.756,331.668 457.814,331.744 457.871,331.82C457.928,331.896 457.985,331.972 458.042,332.048C458.1,332.124 458.157,332.2 458.214,332.276C458.272,332.351 458.329,332.427 458.386,332.504C458.443,332.579 458.5,332.655 458.557,332.731C458.615,332.807 458.672,332.883 458.729,332.959C458.787,333.035 458.844,333.11 458.901,333.187C458.958,333.262 459.016,333.338 459.072,333.414C459.13,333.49 459.187,333.566 459.244,333.642C459.302,333.718 459.359,333.794 459.416,333.87C459.473,333.945 459.531,334.021 459.587,334.097C459.645,334.173 459.702,334.249 459.759,334.325C459.817,334.401 459.874,334.477 459.931,334.553C459.988,334.628 460.046,334.704 460.103,334.78C460.16,334.856 460.217,334.932 460.274,335.008C460.332,335.084 460.389,335.16 460.446,335.236C460.504,335.311 460.561,335.387 460.618,335.464C460.675,335.539 460.732,335.615 460.789,335.691C460.847,335.767 460.904,335.843 460.961,335.919C461.019,335.995 461.076,336.07 461.133,336.147C461.19,336.222 461.247,336.298 461.304,336.374C461.362,336.45 461.419,336.526 461.476,336.602C461.534,336.678 461.591,336.754 461.648,336.83C463.443,339.187 464.855,341.793 465.836,344.664C466.844,347.618 467.459,351.236 467.459,355.485C467.459,355.765 467.445,356.038 467.418,356.305C467.445,356.587 467.459,356.867 467.459,357.147L467.459,362.54C467.459,364.155 466.995,365.613 466.114,366.767C461.317,373.052 454.401,376.169 445.399,376.169C436.462,376.169 429.34,373.061 423.903,368.108C423.893,368.099 423.882,368.089 423.872,368.079C422.429,366.758 421.129,365.337 419.993,363.813C419.935,363.737 419.878,363.661 419.821,363.585C419.763,363.51 419.706,363.434 419.649,363.358C419.592,363.282 419.534,363.206 419.477,363.13C419.42,363.054 419.363,362.978 419.306,362.902C419.248,362.826 419.191,362.751 419.134,362.674C419.076,362.599 419.019,362.523 418.962,362.447C418.905,362.371 418.848,362.295 418.791,362.219C418.733,362.143 418.676,362.067 418.619,361.991C418.561,361.916 418.504,361.84 418.447,361.764C418.39,361.688 418.332,361.612 418.276,361.536C418.26,361.516 418.245,361.496 418.23,361.476L418.23,368.879C418.23,372.934 415.331,375.709 411.097,375.709L395.301,375.709C392.593,375.709 389.684,374.566 387.283,372.589C383.446,374.975 378.852,376.169 373.498,376.169C367.535,376.169 362.344,374.642 357.88,371.948C357.715,372.082 357.542,372.209 357.362,372.327C353.701,374.734 349.267,375.965 344.027,375.965C337.397,375.965 331.777,373.756 327.093,370.02C326.382,370.766 325.576,371.463 324.673,372.109L324.666,372.113C320.952,374.763 316.181,376.169 310.262,376.169C303.363,376.169 296.316,374.736 289.119,371.861C286.652,370.876 284.416,369.126 282.826,366.973C282.768,366.898 282.711,366.822 282.654,366.745C282.596,366.67 282.539,366.594 282.483,366.518C282.425,366.442 282.367,366.366 282.311,366.29C282.253,366.215 282.196,366.139 282.139,366.062C282.081,365.987 282.024,365.911 281.968,365.835C281.91,365.759 281.852,365.683 281.796,365.607C281.738,365.531 281.681,365.456 281.624,365.379C281.566,365.304 281.509,365.228 281.453,365.151C281.395,365.076 281.337,365 281.281,364.924C281.223,364.848 281.166,364.772 281.109,364.696C281.051,364.621 280.994,364.545 280.938,364.468C280.88,364.393 280.822,364.317 280.766,364.241C280.708,364.165 280.651,364.089 280.594,364.013C280.536,363.938 280.479,363.862 280.422,363.785C280.364,363.71 280.307,363.634 280.251,363.558C280.193,363.482 280.136,363.406 280.079,363.33C280.021,363.254 279.964,363.179 279.907,363.102C279.849,363.027 279.792,362.951 279.736,362.874C279.678,362.799 279.62,362.723 279.564,362.647C279.506,362.571 279.449,362.496 279.392,362.419C279.334,362.344 279.277,362.268 279.221,362.191C279.163,362.116 279.105,362.04 279.049,361.964C278.991,361.888 278.934,361.812 278.877,361.736C278.819,361.661 278.762,361.585 278.706,361.508C278.648,361.433 278.59,361.357 278.534,361.281C278.476,361.205 278.419,361.129 278.362,361.053C278.304,360.978 278.247,360.902 278.191,360.825C278.133,360.75 278.075,360.674 278.019,360.598C277.961,360.522 277.904,360.446 277.847,360.37C277.789,360.294 277.732,360.219 277.675,360.142C277.617,360.067 277.56,359.991 277.504,359.914C277.446,359.839 277.389,359.763 277.332,359.687C277.274,359.611 277.217,359.535 277.16,359.459C277.102,359.384 277.045,359.308 276.989,359.231C276.931,359.156 276.873,359.08 276.817,359.004C276.759,358.928 276.702,358.852 276.645,358.776C276.587,358.701 276.53,358.625 276.474,358.548C276.416,358.473 276.358,358.397 276.302,358.321C276.244,358.245 276.187,358.169 276.13,358.093C276.072,358.018 276.015,357.942 275.959,357.865C275.901,357.79 275.843,357.714 275.787,357.638C275.729,357.562 275.672,357.486 275.615,357.41C275.557,357.334 275.5,357.259 275.444,357.182C275.385,357.107 275.328,357.031 275.272,356.954C275.214,356.879 275.157,356.803 275.1,356.727C275.042,356.651 274.985,356.575 274.928,356.499C274.87,356.424 274.813,356.348 274.757,356.271C274.699,356.196 274.641,356.12 274.585,356.044C274.527,355.968 274.47,355.892 274.413,355.816C274.355,355.741 274.298,355.665 274.242,355.588C274.184,355.513 274.126,355.437 274.07,355.361C274.012,355.285 273.955,355.209 273.898,355.133C273.84,355.057 273.783,354.982 273.727,354.905C273.669,354.83 273.611,354.754 273.555,354.677C273.497,354.602 273.44,354.526 273.383,354.45C273.325,354.374 273.268,354.299 273.212,354.222C273.154,354.147 273.096,354.071 273.04,353.994C272.982,353.919 272.925,353.843 272.868,353.767ZM322.655,306.565C321.681,306.627 320.678,306.658 319.644,306.658L316.426,306.658L316.426,312.317L323.002,307.161L322.655,306.565Z" style="fill:rgb(0,111,223);"/>
            </g>
            <path d="M413.353,307.387L418.177,295.188L432.106,295.188L425.496,276.683L433.763,255.777L457.442,318.647L439.98,318.647L435.933,307.387L413.353,307.387ZM398.457,318.648L381.873,318.648L370.466,282.213L358.502,318.648L341.964,318.648L333.385,303.924L341.834,277.892L351.172,296.405L364.411,255.778L377.329,255.778L389.659,296.405L407,255.778L423.805,255.778L398.457,318.648ZM306.409,297.065L306.409,318.647L290.457,318.647L290.457,255.777L316.481,255.777C323.881,255.777 329.501,257.903 333.343,262.155C334.075,262.96 334.726,263.814 335.295,264.718L327.814,287.768L325.137,296.015C322.688,296.715 319.896,297.065 316.76,297.065L306.409,297.065ZM320.111,270.241C318.61,268.73 316.052,267.975 312.435,267.975L306.409,267.975L306.409,284.866L312.391,284.866C316.272,284.866 318.935,284.035 320.382,282.373C321.701,280.878 322.361,278.855 322.361,276.304C322.361,273.772 321.611,271.751 320.111,270.241ZM290.457,363.126L293.984,354.487C295.075,355.952 296.387,357.103 297.921,357.937C299.454,358.755 300.962,359.164 302.445,359.164C303.365,359.164 304.098,358.96 304.643,358.551C305.205,358.142 305.486,357.614 305.486,356.966C305.486,356.336 305.248,355.79 304.771,355.33C304.311,354.853 303.075,354.325 301.065,353.746C299.037,353.166 297.375,352.536 296.08,351.854C294.785,351.155 293.703,350.133 292.834,348.787C291.982,347.441 291.556,345.975 291.556,344.391C291.556,341.323 292.868,338.946 295.492,337.259C298.134,335.555 301.831,334.703 306.586,334.703C311.936,334.703 316.511,335.581 320.311,337.336L316.528,345.183C314.041,342.951 311.638,341.835 309.32,341.835C308.554,341.835 307.932,342.005 307.455,342.346C306.977,342.687 306.739,343.121 306.739,343.649C306.739,344.28 306.977,344.825 307.455,345.285C307.949,345.745 309.244,346.239 311.34,346.768C313.47,347.296 315.225,347.901 316.605,348.582C318.002,349.264 319.11,350.286 319.928,351.65C320.763,353.013 321.18,354.572 321.18,356.327C321.18,359.497 319.894,362.002 317.321,363.842C314.765,365.665 311.451,366.577 307.378,366.577C301.857,366.577 296.217,365.427 290.457,363.126ZM350.038,335.342L350.038,343.982L343.443,343.982L343.443,350.576C343.443,352.808 344.44,353.925 346.434,353.925C347.899,353.925 349.16,353.192 350.217,351.726L350.217,363.919C347.729,365.554 344.704,366.372 341.143,366.372C337.343,366.372 334.139,365.239 331.532,362.973C328.942,360.707 327.647,357.588 327.647,353.618L327.647,343.982L321.206,343.982L343.443,326.55L343.443,335.342L350.038,335.342ZM370.614,366.577C365.74,366.577 361.719,365.111 358.549,362.18C355.397,359.233 353.821,355.398 353.821,350.678C353.821,345.958 355.38,342.116 358.498,339.151C361.617,336.186 365.655,334.703 370.614,334.703C375.607,334.703 379.662,336.186 382.781,339.151C385.916,342.116 387.484,345.958 387.484,350.678C387.484,355.381 385.916,359.207 382.781,362.155C379.662,365.103 375.607,366.577 370.614,366.577ZM370.614,346.844C369.592,346.844 368.757,347.177 368.109,347.841C367.479,348.489 367.163,349.332 367.163,350.372C367.163,351.411 367.479,352.255 368.109,352.902C368.757,353.55 369.592,353.873 370.614,353.873C371.653,353.873 372.497,353.55 373.144,352.902C373.792,352.255 374.116,351.411 374.116,350.372C374.116,349.315 373.792,348.463 373.144,347.816C372.497,347.168 371.653,346.844 370.614,346.844ZM408.213,342.09C410.224,337.421 413.138,335.087 416.955,335.087C419.085,335.087 420.84,335.785 422.22,337.183C423.6,338.58 424.29,340.352 424.29,342.499C424.29,344.748 423.609,346.572 422.246,347.969C420.899,349.349 419.136,350.039 416.955,350.039C414.467,350.039 412.337,349.102 410.565,347.228C408.997,348.557 408.213,351.028 408.213,354.64L408.213,366.117L392.417,366.117L392.417,335.342L408.213,335.342L408.213,342.09ZM457.442,354.385L457.442,359.778C453.983,364.31 449.007,366.577 442.515,366.577C437.164,366.577 432.862,365.094 429.607,362.129C426.352,359.147 424.725,355.228 424.725,350.372C424.725,345.754 426.216,341.988 429.198,339.074C432.197,336.16 436.082,334.703 440.853,334.703C443.29,334.703 445.548,335.112 447.627,335.93C449.706,336.748 451.504,337.949 453.02,339.534C454.537,341.119 455.653,342.959 456.368,345.055C457.084,347.151 457.442,349.707 457.442,352.723L441.314,352.723C441.893,354.291 442.864,355.518 444.227,356.404C445.591,357.29 447.15,357.733 448.905,357.733C452.449,357.733 455.295,356.617 457.442,354.385ZM440.368,347.33L447.806,347.33C447.738,345.796 447.354,344.604 446.656,343.752C445.974,342.883 445.079,342.448 443.972,342.448C443,342.448 442.157,342.865 441.441,343.7C440.726,344.518 440.368,345.728 440.368,347.33Z" style="fill:rgb(255,210,94);"/>
        </g>
    </g>
</svg>
